<svg width="40" height="40" viewBox="0 0 40 40" fill="none" xmlns="http://www.w3.org/2000/svg">
<path d="M7.0372 36.6577V30.7415C7.0372 28.6225 6.48228 27.521 5.39153 25.6793C4.084 23.4718 3.3335 20.8955 3.3335 18.144C3.3335 9.96411 9.96631 3.33301 18.1483 3.33301C26.3303 3.33301 32.9632 9.96411 32.9632 18.144C32.9632 19.1102 32.9632 19.5933 33.0035 19.8642C33.0998 20.5117 33.402 21.0687 33.6992 21.6452L36.6668 27.4008L34.3345 28.5667C33.6585 28.9045 33.3207 29.0735 33.0852 29.3853C32.8497 29.697 32.7835 30.049 32.6508 30.7528L32.6378 30.8215C32.3342 32.434 31.999 34.214 31.055 35.337C30.7217 35.7335 30.309 36.0557 29.8433 36.2828C29.0747 36.6577 28.1297 36.6577 26.2397 36.6577C25.3652 36.6577 24.4882 36.6778 23.6138 36.6567C21.5413 36.6062 20.0002 34.8637 20.0002 32.8403" stroke="#616161" stroke-width="1.83077" stroke-linecap="round" stroke-linejoin="round"/>
<path d="M23.9802 17.5522C23.2697 17.5522 22.6217 17.2833 22.1308 16.841M23.9802 17.5522C23.9802 19.462 22.8737 21.276 20.7437 21.276C18.6137 21.276 17.5073 23.0898 17.5073 24.9997M23.9802 17.5522C27.5623 17.5522 27.5623 11.9666 23.9802 11.9666C23.6547 11.9666 23.3423 12.0231 23.0522 12.1267C23.2272 7.96332 17.225 6.83301 15.8655 10.7333M15.8655 10.7333C16.8557 11.4015 17.5073 12.5384 17.5073 13.8285M15.8655 10.7333C12.7792 8.65024 8.66487 12.3882 10.6222 15.721C7.33726 16.2135 7.68848 21.276 11.0343 21.276C11.9726 21.276 12.802 20.807 13.3041 20.0893" stroke="#0053FE" stroke-width="1.83077" stroke-linecap="round" stroke-linejoin="round"/>
</svg>
