<svg width="567" height="901" viewBox="0 0 567 901" fill="none" xmlns="http://www.w3.org/2000/svg">
<path d="M319.695 681.277C319.437 689.929 317.666 698.386 315.895 706.787C310.89 730.534 308.198 754.54 306.637 778.732C305.392 797.846 302.174 816.67 296.207 834.935C296.199 834.975 296.183 835.008 296.175 835.048C296.11 835.25 296.053 835.46 295.989 835.662C290.862 852.949 284.871 869.937 278.694 886.876C277.845 889.213 275.282 890.086 274.659 891.986C274.036 893.878 276.47 896.183 274.869 898.471H153.699C168.375 858.431 181.077 773.202 181.077 773.202L152.171 628.697L103.181 695.653C103.593 697.554 104.208 699.413 104.928 701.281C109.973 714.444 114.8 727.704 119.7 740.924C119.522 741.256 119.328 741.514 119.11 741.7C118.932 741.256 118.73 740.819 118.519 740.383C114.258 728.61 109.997 716.813 105.122 705.3C103.925 702.486 103.036 699.64 102.381 696.777C100.731 689.549 100.594 682.199 100.99 674.841C101.459 665.988 101.305 657.11 102.227 648.256C104.176 629.522 105.817 610.755 108.938 592.167C109.391 589.49 109.577 586.83 109.577 584.138C109.633 555.475 107.709 526.803 108.881 498.156C110.515 458.537 116.571 419.686 132.184 382.832C132.362 382.509 132.54 382.194 132.709 381.87C132.718 381.87 132.718 381.862 132.718 381.862C132.839 381.652 132.952 381.442 133.065 381.223C134.634 378.296 136.065 375.297 137.561 372.329C137.666 372.119 137.779 371.901 137.884 371.691C137.925 371.618 137.957 371.537 138.005 371.464C138.119 371.238 138.248 371.019 138.385 370.809C138.402 370.785 138.418 370.753 138.434 370.728C138.531 370.591 138.636 370.445 138.741 370.308C139.146 369.75 139.55 369.2 139.897 368.61C139.962 368.505 140.027 368.4 140.083 368.295C140.116 368.23 140.156 368.165 140.189 368.093C140.318 367.842 140.447 367.599 140.585 367.357C140.649 367.227 140.722 367.098 140.795 366.969C140.852 366.88 140.9 366.783 140.957 366.694C142.267 364.648 143.423 362.522 144.7 360.468C144.83 360.25 144.967 360.039 145.105 359.829C145.121 359.797 145.145 359.756 145.169 359.724C147.975 355.803 150.805 351.905 153.91 348.21C154.799 347.151 155.616 345.962 157.184 345.995H157.192C157.281 345.995 157.386 345.995 157.483 346.011C157.54 346.027 157.605 346.035 157.661 346.051C170.097 348.752 182.104 352.981 194.353 356.385C203.814 359.021 212.675 363.435 222.192 365.966C226.623 367.138 231.199 367.502 235.606 368.731C237.077 369.144 238.549 369.516 239.843 370.292C240.085 370.445 240.32 370.607 240.546 370.785C240.716 370.914 240.886 371.052 241.047 371.205C243.36 374.658 243.902 378.733 244.945 382.598C248.114 394.29 251.834 405.9 252.933 418.004C254.558 435.841 254.946 453.726 253.653 471.612C253.216 477.668 253.402 483.724 253.491 489.78C253.564 494.906 252.602 499.911 252.294 504.989C253.823 487.508 257.898 470.358 259.167 452.837C259.353 450.29 259.547 447.727 260.695 445.374C260.881 445.293 261.051 445.228 261.213 445.188C261.253 445.164 261.285 445.156 261.326 445.148H261.334C263.372 444.614 263.574 446.692 264.164 447.945C268.975 458.214 272.419 468.976 275.839 479.754C284.539 507.236 290.984 535.309 297.759 563.293C300.387 574.144 303.735 584.809 306.136 595.732C308.489 606.43 308.489 617.377 309.96 628.155C312.119 643.987 314.351 659.802 318.668 675.229C318.814 675.787 318.968 676.337 319.129 676.887C319.194 677.113 319.251 677.348 319.291 677.574C319.299 677.582 319.299 677.582 319.291 677.59V677.598C319.558 678.819 319.59 680.048 319.695 681.277Z" fill="#1C254C"/>
<path d="M496.332 898.47H274.869C276.47 896.182 274.037 893.878 274.659 891.986C275.282 890.086 277.845 889.212 278.694 886.876C284.871 869.937 290.863 852.949 295.989 835.662C298.293 836.357 300.307 837.651 302.312 838.953C317.682 848.93 333.667 857.994 348.1 869.734C349.952 861.164 349.006 852.706 349.224 844.305C349.297 841.459 349.612 838.718 351.156 836.228C355.458 829.274 359.986 822.442 363.948 815.303C370.643 803.231 376.165 790.698 375.041 776.395C374.321 767.202 372.826 758.106 371.249 748.993C369.478 738.708 367.239 728.763 361.368 719.95C360.01 717.904 359.282 715.697 358.83 713.263C357.196 704.321 355.506 695.378 353.55 686.5C349.2 666.755 346.143 646.8 343.669 626.764C341.858 612.033 340.686 597.228 338.834 582.488C336.877 566.834 335.204 551.132 333.999 535.398C332.77 519.356 332.349 503.258 331.412 487.192C330.902 478.508 330.967 469.638 328.743 461.262C323.18 440.231 315.79 419.783 307.559 399.642C301.713 385.355 295.382 371.254 290.83 356.473C289.82 353.199 288.316 349.892 288.946 345.897C290.038 346.496 290.782 346.803 291.404 347.256C300.121 353.643 306.338 362.311 312.16 371.124C326.819 393.343 338.988 416.985 350.89 440.757C358.215 455.384 365.177 470.172 370.643 485.599C374.127 495.439 375.607 505.878 379.148 515.734C379.868 517.739 380.394 519.858 380.701 521.968C383.272 539.934 387.881 557.382 394.503 574.249C398.966 585.625 403.251 596.905 404.278 609.3C405.418 623.142 410.423 636.055 415.477 648.878C416.601 651.716 418.792 653.964 419.762 656.996C427.354 680.622 435.319 704.127 443.509 727.558C445.361 732.854 446.129 738.425 446.299 744.134C446.719 758.203 444.302 772.183 445.329 786.292C446.501 802.35 448.506 818.254 452.88 833.754C455.112 841.661 458.217 849.302 463.489 855.811C461.419 850.345 458.839 845.082 456.915 839.592C453.317 829.323 451.538 818.634 450.002 807.872C448.344 796.172 446.59 784.432 447.261 772.692C447.843 762.456 447.552 752.26 447.827 742.056C448.053 733.736 446.396 725.642 442.846 718.244C436.766 705.59 432.82 692.241 428.616 678.948C425.155 667.976 422.333 656.794 417.191 646.372C410.965 633.758 407.383 620.288 405.976 606.34C405.54 601.99 404.658 597.527 405.184 593.129C406.397 582.925 406.3 572.737 404.375 562.687C401.052 545.278 400.341 527.612 398.513 510.058C397.438 499.668 395.942 489.238 392.441 479.43C388.512 468.409 382.633 458.181 377.135 447.856C374.904 443.668 372.866 439.512 371.791 434.895C368.306 419.993 364.409 405.278 356.97 391.678C351.464 381.611 349.847 370.445 349.175 359.109C348.973 355.649 350.332 352.325 349.871 348.744C348.715 349.39 348.634 350.344 348.432 351.258C346.75 359.125 344.227 366.766 341.947 374.472C341.163 377.108 339.788 377.665 337.516 376.186C336.619 375.604 335.648 375.11 334.816 374.447C326.083 367.502 318.184 359.619 310.058 352.01C300.824 343.359 291.922 334.327 283.189 325.166C276.422 318.067 269.687 310.952 262.321 304.467C261.326 303.594 260.696 301.702 258.747 302.826C252.772 290.673 243.182 279.879 244.516 264.889L249.861 256.391C250.273 256.908 250.839 257.426 251.502 257.935C254.639 260.353 257.857 262.657 261.043 265.01C288.768 290.115 313.761 318.293 345.076 339.38C346.014 338.168 345.666 336.486 345.982 334.942C346.863 330.567 346.726 325.934 349.111 321.916C349.119 321.883 349.119 321.843 349.127 321.811C349.127 321.811 349.127 321.811 349.135 321.811C349.758 321.859 350.21 322.174 350.55 322.692C350.59 322.797 350.639 322.902 350.687 322.999C350.485 322.983 350.275 322.967 350.073 322.951C349.992 323.371 350 323.759 350.065 324.115C350.146 324.576 350.332 324.996 350.574 325.393C355.07 336.47 369.009 370.671 378.025 391.184C378.049 391.233 378.065 391.281 378.097 391.33C381.938 400.111 386.361 408.633 390.072 417.471C396.193 431.677 401.06 446.32 405.257 461.197C415.218 498.665 424.46 536.312 432.877 574.16C433.257 575.866 433.524 577.596 434.106 579.254C441.439 615.226 450.107 650.892 458.759 686.557C462.688 699.348 465.179 712.414 466.561 725.707C467.41 733.801 466.65 741.878 465.744 749.875C462.931 774.697 465.243 799.035 472.075 822.968C478.026 843.82 484.414 864.527 492.047 884.838C493.187 887.87 494.626 890.773 495.701 893.821C496.227 895.317 497.092 896.789 496.332 898.47Z" fill="#FEFEFE"/>
<path d="M350.574 325.393C350.331 324.997 350.145 324.576 350.064 324.115C350.218 324.495 350.388 324.924 350.574 325.393Z" fill="#FEFEFE"/>
<path d="M395.416 192.482C394.333 202.734 389.368 233.944 387.371 237.041C386.74 238.464 386.635 239.976 386.66 241.504C386.837 243.558 386.029 245.369 385.253 247.18C385.067 248.11 384.978 249.048 384.84 249.986C384.533 251.264 384.549 252.59 384.339 253.883C382.973 256.972 383.725 260.441 382.617 263.57C380.029 271.615 373.31 273.976 366.05 275.431C364.319 275.779 362.589 276.086 360.875 276.515C360.786 276.531 360.689 276.555 360.6 276.58C348.536 276.369 336.853 274.024 325.501 270.022C316.881 266.982 308.125 264.354 299.352 261.864C281.063 256.673 269.419 245.191 264.479 226.853C263.752 224.145 263.169 221.331 260.897 219.35C260.614 219.318 260.331 219.277 260.056 219.229C259.862 219.213 259.668 219.18 259.474 219.148C259.927 218.752 260.412 218.396 260.962 218.056C253.232 217.49 246.57 214.669 241.25 208.879C241.241 208.871 241.225 208.831 241.193 208.782C241.08 208.596 240.837 208.168 240.514 207.529C240.514 207.521 240.506 207.521 240.506 207.521C238.557 203.737 233.714 192.571 237.142 180.604C237.142 180.596 237.15 180.58 237.15 180.572C237.223 180.386 237.304 180.2 237.385 180.022C238.557 177.427 240.158 175.373 243.214 175.106C246.513 174.815 249.481 175.656 251.179 178.72C253.911 183.644 257.453 188.1 259.466 193.452C261.091 197.778 263.566 198.74 267.657 197.091C272.088 195.312 269.169 192.377 268.247 190.493C263.865 181.494 264.681 172.842 268.886 164.11C270.98 159.76 272.929 155.305 274.57 150.769C276.802 144.575 280.416 139.635 286.092 136.255C286.254 136.077 286.423 135.899 286.601 135.73C286.634 135.713 286.674 135.705 286.706 135.697C298.77 136.304 310.462 138.899 321.822 142.837C340.653 149.354 359.759 151.61 379.463 147.777C384.08 146.88 388.818 146.92 393.508 147.607C393.565 151.1 393.88 154.617 393.621 158.094C392.982 166.762 395.287 175.138 395.885 183.677C396.095 186.668 395.732 189.547 395.416 192.482Z" fill="#FDC59E"/>
<path d="M286.601 135.73C286.424 135.9 286.254 136.078 286.092 136.256C280.416 139.636 276.802 144.576 274.57 150.77C272.929 155.306 270.98 159.761 268.886 164.111C264.682 172.843 263.865 181.495 268.247 190.494C269.169 192.378 272.088 195.313 267.657 197.092C263.566 198.741 261.092 197.779 259.466 193.453C257.453 188.1 253.912 183.645 251.179 178.721C249.481 175.657 246.513 174.816 243.215 175.107C240.158 175.374 238.557 177.428 237.385 180.023C237.304 180.201 237.223 180.387 237.15 180.573C237.53 179.247 237.83 178.074 238.064 177.031C241.63 172.762 247.67 172.754 251.51 177.702C254.793 181.931 257.696 186.483 259.782 191.48C260.348 192.839 260.849 194.253 261.924 195.321C263.501 196.873 265.345 196.8 267.132 195.871C268.91 194.949 268.514 193.283 267.811 191.998C261.261 180.16 264.819 169.148 270.382 158.257C272.403 154.303 273.463 149.937 275.565 146.023C277.99 141.495 280.917 137.453 286.108 135.876C286.27 135.819 286.432 135.771 286.601 135.73Z" fill="#FDC59E"/>
<path d="M428.705 49.6438C427.888 64.6667 422.859 77.6925 410.084 86.8048C404.836 90.5484 399.508 94.2274 396.136 99.9681C395.748 100.106 395.328 100.275 394.964 100.073C386.757 95.5615 378.049 96.7905 369.389 97.9467C348.044 100.801 327.264 106.121 306.718 112.444C304.932 112.986 303.145 113.56 301.6 114.643C301.6 114.651 301.6 114.651 301.592 114.651C301.253 114.894 300.937 115.145 300.63 115.436C300.557 115.476 300.484 115.525 300.412 115.565C299.595 116.058 298.778 116.503 297.921 116.923C297.881 116.94 297.849 116.956 297.808 116.972C295.318 118.217 292.714 119.212 290.127 120.255C290.119 120.255 290.111 120.263 290.103 120.263C288.251 121.015 286.4 121.783 284.613 122.672C282.761 123.586 280.812 124.306 279.09 125.437C278.775 125.64 278.476 125.858 278.185 126.101C278.112 126.149 278.031 126.214 277.958 126.278C275.08 128.211 272.234 130.2 269.347 132.116C269.202 132.197 269.064 132.278 268.919 132.367C268.733 132.472 268.539 132.577 268.353 132.69C260.752 137.081 253.152 141.487 246.271 146.961C240.166 151.829 235.978 158.257 232.421 165.129C231.483 166.924 230.973 169.31 228.451 169.584C228.289 169.609 228.103 169.617 227.917 169.617H227.909C214.632 171.04 201.566 169.698 188.872 165.849C180.52 163.31 176.016 153.284 178.126 143.961C178.571 142.013 179.428 140.145 179.315 138.083C179.234 137.962 179.177 137.841 179.153 137.719C179.088 137.477 179.145 137.242 179.307 137C180.204 135.763 181.102 134.534 181.991 133.297C185.136 129.788 188.775 126.844 192.567 124.111C196.602 121.209 200.313 117.966 203.685 114.344C203.862 114.158 204.04 113.964 204.218 113.77C204.234 113.746 204.259 113.722 204.283 113.697C210.331 104.561 220.866 101.116 228.822 94.3891C245.414 80.3849 263.849 68.9277 281.589 56.5084C295.52 46.7572 310.147 38.2594 326.002 32.0173C335.228 28.3788 344.947 27.0609 354.755 26.123C361.037 25.5166 367.376 25.6864 373.626 24.6676C375.154 24.4169 376.78 23.6973 378.332 24.708C381.93 24.3199 385.294 25.4115 388.544 26.6405C399.597 30.8126 410.529 35.3 421.695 39.173C428.139 41.4127 429.077 42.8439 428.705 49.6438Z" fill="#010101"/>
<path d="M378.332 24.7082C375.057 25.9615 371.637 26.3657 368.152 26.4223C346.984 26.8104 326.786 30.9179 308.052 41.3239C288.364 52.2556 270.317 65.6452 251.745 78.2506C244.492 83.1666 237.514 88.4141 230.868 94.1144C229.138 95.6021 227.383 97.1141 225.442 98.3026C217.891 102.919 210.266 107.431 204.776 114.652C203.814 115.015 203.571 114.385 203.595 113.673C203.644 112.137 204.372 110.803 205.172 109.574C211.495 99.8712 218.077 90.3061 226.316 82.1478C237.134 71.4264 246.352 59.3223 256.58 48.1158C262.612 41.5099 267.697 34.3381 271.692 26.3253C273.39 22.9213 276.195 20.1965 279.413 18.2155C288.671 12.5071 297.921 6.72598 308.068 2.6913C311.327 1.39762 314.804 0.0958459 318.499 1.3491C328.484 0.863971 338.324 1.64019 347.704 5.35145C356.42 8.79588 364.328 13.817 372.397 18.4985C374.475 19.7033 376.367 21.2152 378.461 22.3876C380.232 23.3822 378.898 23.9643 378.332 24.7082Z" fill="#FEFEFE"/>
<path d="M393.508 147.609C393.023 147.835 392.53 148.28 392.061 148.256C381.145 147.56 370.602 151.296 359.702 150.916C348.294 150.512 337.071 149.194 326.188 145.482C313.89 141.302 301.454 137.656 288.34 137.065C287.58 137.033 286.844 136.54 286.092 136.257C286.092 136.127 286.092 135.998 286.108 135.877C286.253 133.985 287.992 133.403 289.302 132.554C290.692 131.648 292.164 130.92 293.684 130.29C294.743 129.845 295.827 129.457 296.918 129.093H296.926C297.703 128.826 298.479 128.584 299.255 128.349C302.53 128.462 305.529 126.878 308.788 126.829C309.459 126.966 310.13 127.063 310.801 127.12H310.825C315.256 127.565 319.647 126.611 323.964 125.996C330.417 125.074 336.845 125.163 343.256 125.463C344.971 125.543 346.677 125.632 348.391 125.729C356.509 126.174 364.529 126.538 372.631 125.147C372.825 125.115 373.011 125.083 373.205 125.05C376.86 124.387 380.595 124.217 384.282 124.759C386.377 125.058 388.455 125.592 390.492 126.392H390.5C390.549 126.409 390.597 126.425 390.646 126.449C390.888 126.619 391.107 126.797 391.317 126.991C392.449 128.001 393.16 129.311 393.597 130.807C392.53 131.535 392.15 132.271 392.562 133.742C393.84 138.27 393.783 142.943 393.508 147.609Z" fill="#C38D72"/>
<path d="M318.482 1.34123C311.78 1.131 306.031 4.04179 300.363 7.04961C295.633 9.55612 291.129 12.5073 286.375 14.9734C278.605 19 272.864 24.7165 269.177 32.7778C265.741 40.2973 259.442 45.8116 254.397 52.2154C241.201 68.9443 225.07 83.1182 212.602 100.454C209.95 104.141 207.549 108.014 205.131 111.862C204.646 112.63 203.514 113.552 204.768 114.652C198.024 121.905 189.995 127.589 181.991 133.297C180.745 129.828 182.621 126.812 184.101 124.193C189.227 115.096 192.866 105.111 199.916 97.1466C201.517 95.3355 203.215 93.6052 204.929 91.8991C214.915 81.8973 225.281 72.2432 234.805 61.821C245.131 50.5255 255.569 39.3513 266.032 28.1852C273.923 19.7681 283.221 13.6878 293.393 8.66671C300.589 5.11717 307.518 0.864182 315.83 0.193083C317.1 0.0879716 318.24 -0.566957 318.482 1.34123Z" fill="#D3DEF7"/>
<path d="M421.314 113.568C424.492 114.684 427.702 115.727 429.812 118.638C428.818 119.164 427.742 119.131 426.659 119.099C412.93 118.67 399.265 119.608 385.568 120.409C372.817 121.153 359.994 120.174 347.227 120.7C326.972 121.541 306.573 121.161 286.731 126.465C285.55 126.78 284.346 126.91 283.149 126.562C280.27 124.039 283.359 123.433 284.62 122.802C289.197 120.522 293.943 118.622 298.641 116.609C305.198 113.795 311.828 111.207 318.709 109.291C338.114 103.615 357.932 100.017 377.936 97.3489C381.606 96.8637 385.164 97.745 388.738 98.2787C389.684 98.4242 391.042 98.7719 389.951 100.332C386.579 101.739 383.029 100.769 379.577 101.101C378.558 101.198 377.224 100.834 376.739 102.071C376.278 103.243 377.321 104.044 378.008 104.844C383.264 110.957 389.49 114.539 397.996 114.304C405.774 114.102 413.544 113.625 421.314 113.568Z" fill="#010101"/>
<path d="M429.812 118.638V118.646C429.529 121.136 427.29 121.387 425.64 122.333C424.937 121.84 424.136 121.727 423.328 121.864C412.614 123.724 401.691 123.028 390.937 124.54C390.913 124.54 390.88 124.548 390.856 124.548C390.646 124.556 390.436 124.565 390.225 124.565C388.245 124.621 386.264 124.686 384.283 124.759C380.402 124.88 376.521 125.017 372.631 125.147C362.848 125.462 353.056 125.688 343.257 125.462C342.586 125.446 341.906 125.43 341.235 125.414C331.136 125.114 321.183 126.675 311.181 127.686C310.106 127.799 309.047 127.96 307.996 127.589C305.238 129.497 302.029 128.801 299.005 129.173C297.242 129.602 295.471 129.966 293.684 130.289C287.305 131.453 280.844 132.092 274.465 133.256C272.888 133.548 271.271 133.79 269.67 133.564C268.781 133.434 268.377 133.127 268.352 132.69C268.336 132.335 268.579 131.898 269.032 131.413C271.643 129.537 274.247 127.661 276.85 125.785C277.602 125.551 278.338 125.446 279.09 125.438C280.157 125.414 281.216 125.583 282.276 125.842C282.316 125.834 282.365 125.826 282.405 125.818C288.251 124.71 294.064 123.457 299.942 122.519C318.863 119.503 337.977 119.56 357.042 119.471C379.213 119.366 401.343 117.692 423.514 117.837C425.656 117.845 427.815 117.49 429.796 118.63H429.804C429.804 118.638 429.812 118.638 429.812 118.638Z" fill="#E1A609"/>
<path d="M421.314 113.568C411.013 116.22 400.551 116.083 390.185 114.555C383.45 113.56 379.1 108.386 375.203 103.195C373.707 101.206 374.661 99.9119 377.127 99.92C381.291 99.928 385.463 99.9766 389.627 100.017C391.657 100.106 393.913 99.3621 395.344 101.594C395.279 103.51 397.009 103.502 398.101 103.963C405.814 107.221 413.577 110.383 421.314 113.568Z" fill="#484A4A"/>
<path d="M395.343 101.593C393.516 100.784 391.349 101.188 389.627 100.016C386.005 98.6738 382.205 97.9784 378.429 98.4878C364.376 100.372 350.372 102.539 336.57 105.886C330.465 107.366 324.361 108.878 318.264 110.374C313.033 110.802 308.521 113.608 303.548 114.853C302.368 115.144 301.22 116.486 299.886 115.168C300.379 113.042 302.376 112.759 303.904 112.266C323.787 105.838 343.936 100.525 364.651 97.469C371.022 96.5311 377.353 95.7307 383.83 95.8034C388.487 95.86 392.497 97.1941 396.136 99.9675C396.176 100.663 396.015 101.253 395.343 101.593Z" fill="#2A2A29"/>
<path d="M391.228 123.384C401.885 121.799 412.687 122.503 423.368 121.274C424.096 121.193 425.681 120.32 425.632 122.333C414.741 124.346 404.117 127.395 393.589 130.807C391.398 130.726 391.705 128.834 391.204 127.516C390.258 126.133 389.328 124.751 391.228 123.384Z" fill="#080605"/>
<path d="M463.488 855.812C458.216 849.303 455.112 841.662 452.88 833.754C448.506 818.255 446.501 802.35 445.328 786.292C444.301 772.183 446.719 758.203 446.298 744.134C446.129 738.426 445.36 732.855 443.509 727.559C435.318 704.127 427.354 680.623 419.762 656.997C418.791 653.965 416.6 651.717 415.476 648.879C410.423 636.055 405.418 623.143 404.278 609.3C403.251 596.905 398.966 585.626 394.502 574.249C387.88 557.383 383.272 539.934 380.7 521.968C380.393 519.858 379.868 517.74 379.148 515.734C375.607 505.878 374.127 495.44 370.642 485.6C365.176 470.173 358.215 455.384 350.889 440.757C338.987 416.986 326.819 393.344 312.159 371.125C306.338 362.312 300.12 353.644 291.404 347.256C290.781 346.804 290.037 346.496 288.946 345.898C288.315 349.892 289.819 353.199 290.83 356.474C295.382 371.254 301.713 385.355 307.559 399.642C315.79 419.784 323.18 440.232 328.743 461.262C330.966 469.639 330.902 478.509 331.411 487.193C332.349 503.258 332.769 519.357 333.998 535.398C335.203 551.133 336.877 566.835 338.834 582.489C340.685 597.228 341.858 612.033 343.669 626.765C346.143 646.801 349.199 666.756 353.549 686.501C355.506 695.379 357.196 704.321 358.829 713.264C359.282 715.698 360.01 717.905 361.368 719.951C367.238 728.764 369.478 738.709 371.249 748.994C372.825 758.106 374.321 767.202 375.041 776.396C376.165 790.699 370.642 803.232 363.947 815.303C359.985 822.443 355.457 829.275 351.156 836.229C349.612 838.719 349.296 841.46 349.224 844.306C349.005 852.707 349.951 861.164 348.1 869.735C333.667 857.995 317.682 848.931 302.311 838.953C300.306 837.652 298.293 836.358 295.988 835.663C295.705 835.574 295.414 835.493 295.123 835.428C297.525 825.111 300.718 814.988 302.4 804.501C304.705 790.157 305.683 775.684 306.702 761.219C308.214 739.728 312.426 718.665 316.388 697.554C317.407 692.153 318.531 686.743 318.612 681.213C318.555 679.216 318.587 677.219 318.668 675.23C318.862 669.877 319.404 664.541 319.671 659.188C320.552 641.198 320.803 623.167 321.66 605.193C322.63 584.89 320.859 564.903 318.515 544.875C317.1 532.714 316.38 520.505 315.677 508.296C314.828 493.475 312.159 478.913 309.394 464.375C304.745 439.908 298.948 415.684 293.619 391.371C292.698 387.166 291.461 382.962 289.399 379.186C284.03 369.306 280.99 358.511 276.777 348.186C276.721 348.041 276.672 347.903 276.615 347.758C276.575 347.644 276.535 347.539 276.494 347.434C271.36 333.608 265.271 320.17 259.45 306.618C258.981 305.527 258.229 304.468 258.601 303.214C258.633 303.085 258.682 302.956 258.746 302.826C260.695 301.702 261.326 303.594 262.32 304.468C269.686 310.952 276.421 318.068 283.189 325.167C291.921 334.328 300.824 343.359 310.057 352.011C318.183 359.619 326.083 367.502 334.815 374.448C335.648 375.111 336.618 375.604 337.516 376.186C339.788 377.666 341.162 377.108 341.947 374.472C344.227 366.767 346.749 359.126 348.431 351.259C348.633 350.345 348.714 349.391 349.87 348.744C350.331 352.326 348.973 355.649 349.175 359.11C349.846 370.446 351.463 381.612 356.969 391.678C364.408 405.278 368.305 419.994 371.79 434.895C372.866 439.512 374.903 443.668 377.135 447.856C382.633 458.182 388.511 468.41 392.441 479.43C395.942 489.238 397.438 499.669 398.513 510.058C400.34 527.612 401.052 545.279 404.375 562.687C406.299 572.737 406.396 582.925 405.183 593.129C404.658 597.528 405.539 601.991 405.976 606.341C407.383 620.288 410.965 633.759 417.19 646.372C422.333 656.795 425.155 667.977 428.615 678.949C432.82 692.241 436.766 705.591 442.846 718.245C446.395 725.643 448.053 733.736 447.827 742.056C447.552 752.26 447.843 762.456 447.261 772.693C446.589 784.433 448.344 796.173 450.002 807.873C451.538 818.635 453.317 829.324 456.915 839.592C458.839 845.082 461.418 850.346 463.488 855.812Z" fill="#D0DFF5"/>
<path d="M139.283 370.809C139.162 371.043 139.049 371.277 138.935 371.512C138.507 371.827 138.046 372.151 137.561 372.329C137.302 372.426 137.027 372.482 136.752 372.474C127.106 372.126 117.509 373.986 107.847 373.153C107.774 373.145 107.709 373.145 107.636 373.145C114.986 374.528 121.988 378.263 129.661 379.743C130.89 379.977 132.233 380.196 133.065 381.223C133.276 381.473 133.445 381.772 133.583 382.136C126.031 401.04 120.015 420.421 116.377 440.473C109.609 477.764 108.518 515.386 110.402 553.153C111.032 565.67 111.93 578.299 110.272 590.67C108.291 605.467 106.415 620.271 104.726 635.1C102.591 653.85 101.685 672.666 102.607 691.545C102.68 692.952 102.882 694.319 103.181 695.653C103.594 697.553 104.208 699.412 104.928 701.28C109.973 714.443 114.8 727.704 119.7 740.923C119.522 741.255 119.328 741.514 119.11 741.7C118.334 742.371 117.323 742.217 116.28 741.918C112.649 740.867 108.922 740.301 105.219 739.581C104.386 739.428 103.553 739.258 102.728 739.072C99.4943 737.366 96.0094 736.388 92.476 735.514C81.7708 732.878 71.2919 729.442 60.7322 726.289C59.576 725.941 58.4117 725.561 57.5223 724.664C55.5009 720.621 57.021 716.44 57.2797 712.398C58.6623 690.64 61.3467 669.003 63.546 647.317C65.0742 632.319 67.0875 617.369 68.5671 602.37C70.8149 579.601 73.5478 556.889 75.7471 534.12C77.4612 516.299 79.7817 498.544 81.5929 480.731C84.0185 457.033 86.711 433.366 89.3307 409.692C90.6163 398.049 92.29 386.454 93.8991 374.851C94.1012 373.404 94.1821 371.86 95.1847 370.655C95.2736 370.558 95.3625 370.461 95.4596 370.364C98.7261 369.555 102.082 369.668 105.389 369.62C114.93 369.466 124.47 369.588 134.003 369.523C135.628 369.515 137.359 369.24 138.741 370.307C138.927 370.445 139.105 370.614 139.283 370.809Z" fill="#EDD9C2"/>
<path d="M277.295 347.264C277.877 348.46 278.548 349.625 279.025 350.87C282.906 360.888 286.82 370.873 291.299 380.657C296.369 391.742 297.501 404 300.225 415.764C305.837 439.988 311.189 464.285 314.852 488.906C316.138 497.566 316.97 506.274 317.237 515.014C317.714 530.781 320.019 546.362 321.725 561.999C323.69 579.997 323.083 598.004 322.63 616.035C322.097 637.025 321.207 657.99 319.17 678.892C319.097 679.676 318.806 680.444 318.612 681.212C316.93 673.393 315.095 665.599 313.591 657.748C311.052 644.496 308.667 631.235 307.923 617.708C307.017 601.448 302.667 585.843 298.446 570.206C294.857 556.905 292.035 543.402 288.55 530.077C284.725 515.451 281.257 500.719 276.656 486.294C272.46 473.131 268.425 459.935 262.822 447.282C262.425 446.392 262.126 445.559 261.229 445.082C259.814 443.878 259.927 442.188 259.951 440.611C260.283 419.136 257.186 398.065 252.618 377.164C252.416 376.242 252.23 375.32 252.294 374.383C252.408 372.895 253.402 371.981 254.526 371.237C261.512 366.604 266.153 359.934 270.56 353.021C272.185 350.441 273.85 347.765 277.295 347.264Z" fill="#394776"/>
<path d="M156.854 346.496C159.069 343.1 162.238 340.545 164.834 337.488C166.71 333.316 170.47 331.133 174.157 329.023C187.805 321.212 201.292 321.406 214.471 330.26C228.394 339.041 235.857 352.285 240.272 367.623C240.636 368.885 241.234 370.186 240.126 371.407C234.952 368.974 229.227 368.852 223.786 367.551C214.22 365.27 205.423 360.702 195.996 358.099C184.005 354.792 172.394 350.102 160.055 348.089C158.754 347.878 157.937 346.981 156.854 346.496Z" fill="#333F8A"/>
<path d="M240.126 371.407C236.131 355.002 228.854 340.715 214.195 331.19C216.168 328.926 216.88 326.007 218.262 323.428C224.901 325.012 229.703 329.379 233.673 334.473C241.136 344.046 247.564 354.298 251.955 365.699C252.876 368.084 253.79 370.494 253.087 373.138C256.547 389.317 259.24 405.601 260.728 422.103C261.423 429.777 260.776 437.434 261.213 445.083C259.587 466.865 255.254 488.259 251.906 509.783C251.906 505.457 251.85 501.123 251.914 496.798C252.294 472.072 254.243 447.355 252.116 422.629C250.604 404.995 245.583 388.136 240.126 371.407Z" fill="#F8E2C8"/>
<path d="M133.583 382.129C123.185 378.936 112.779 375.734 102.381 372.54C114.695 373.308 126.791 370.81 138.936 371.513C137.504 375.232 135.612 378.717 133.583 382.129Z" fill="#F9F3E8"/>
<path d="M95.4271 370.712C95.2978 370.68 95.1603 370.664 95.039 370.607C94.5701 370.389 94.5458 369.944 95.0067 369.912C98.5966 369.637 102.195 369.362 105.793 369.249C117.404 368.885 129.014 368.594 140.625 368.271C140.577 369.322 140.108 370.163 139.283 370.801C126.379 370.785 113.466 370.122 100.57 371.246C98.8796 371.4 97.1412 370.906 95.4271 370.712Z" fill="#F9F2EB"/>
<path d="M360.43 281.642C359.516 284.618 359.064 287.682 358.271 290.674C354.722 300.91 350.614 310.976 349.127 321.811C349.118 321.843 349.118 321.884 349.11 321.916C346.725 325.935 346.863 330.568 345.981 334.942C345.666 336.486 346.014 338.168 345.076 339.381C313.76 318.294 288.768 290.116 261.043 265.01C260.42 264.129 259.676 263.312 258.957 262.488C257.218 260.523 255.545 258.518 255.642 255.526C255.642 255.453 255.65 255.38 255.65 255.308C255.666 255.114 255.674 254.92 255.682 254.725C255.876 255.122 256.086 255.51 256.305 255.898C257.817 251.216 256.887 246.381 257.235 241.627C257.776 234.107 255.189 226.078 260.056 219.23C259.862 219.214 259.668 219.181 259.474 219.149C259.927 218.753 260.412 218.397 260.962 218.058C264.253 219.4 264.309 222.691 265.126 225.367C267.972 234.746 271.789 243.47 279.235 250.278C283.61 254.281 288.728 257.175 294.153 258.89C309.863 263.878 325.371 269.579 341.453 273.322C346.628 274.527 351.957 275.416 357.358 275.344C358.53 275.327 359.824 275.044 360.705 276.217C360.77 276.314 360.826 276.419 360.875 276.516C361.797 278.279 360.931 279.993 360.43 281.642Z" fill="#D39A7A"/>
<path d="M277.304 347.264C277.069 347.426 276.843 347.587 276.616 347.757C271.514 351.598 269.105 357.581 265.289 362.449C261.876 366.791 257.882 370.397 253.087 373.13C253.047 372.96 252.999 372.782 252.958 372.612C249.481 358.988 241.849 347.523 233.892 336.243C229.947 330.64 224.36 326.961 218.409 323.784C218.312 323.768 218.207 323.751 218.109 323.735C216.492 323.476 214.98 322.894 213.444 322.312C199.642 317.089 186.568 317.663 174.706 327.414C173.615 328.312 172.596 329.403 171.124 329.621C170.947 329.654 170.753 329.67 170.55 329.67C168.836 328.15 170.841 327.446 171.383 326.694C177.447 318.455 185.42 312.553 194.516 308.049C195.219 307.702 195.874 307.249 196.545 306.844C196.788 306.764 197.022 306.675 197.265 306.602C201.696 305.13 206.353 304.443 210.679 302.591C212.514 301.815 214.099 300.287 216.314 300.368C214.794 300.182 213.056 301.031 211.657 300.158H211.649C211.374 299.98 211.124 299.753 210.881 299.43C211.31 299.479 211.722 299.503 212.118 299.503H212.183C217.22 299.503 220.236 296.147 223.139 292.614C223.43 292.258 223.713 291.91 224.004 291.555C229.777 285.749 233.618 278.642 237.369 271.519C239.019 268.39 241.016 265.948 244.517 264.889C243.183 279.879 252.772 290.673 258.747 302.826C258.869 303.085 258.99 303.343 259.103 303.602C265.531 317.428 271.466 331.473 276.891 345.728C277.077 346.221 277.166 346.747 277.304 347.264Z" fill="#1A234A"/>
<path d="M231.021 188.392C230.164 186.274 229.574 184.099 229.146 181.875C229.275 182.344 229.954 184.842 231.021 188.392Z" fill="#4E2209"/>
<path d="M286.601 135.73C286.424 135.9 286.254 136.078 286.092 136.256C280.416 139.636 276.802 144.576 274.57 150.77C272.929 155.306 270.98 159.761 268.886 164.111C264.682 172.843 263.865 181.495 268.247 190.494C269.169 192.378 272.088 195.313 267.657 197.092C263.566 198.741 261.092 197.779 259.466 193.453C257.453 188.1 253.912 183.645 251.179 178.721C249.481 175.657 246.513 174.816 243.215 175.107C240.158 175.374 238.557 177.428 237.385 180.023C237.304 180.201 237.223 180.387 237.15 180.573C237.53 179.247 237.83 178.074 238.064 177.031C241.63 172.762 247.67 172.754 251.51 177.702C254.793 181.931 257.696 186.483 259.782 191.48C260.348 192.839 260.849 194.253 261.924 195.321C263.501 196.873 265.345 196.8 267.132 195.871C268.91 194.949 268.514 193.283 267.811 191.998C261.261 180.16 264.819 169.148 270.382 158.257C272.403 154.303 273.463 149.937 275.565 146.023C277.99 141.495 280.917 137.453 286.108 135.876C286.27 135.819 286.432 135.771 286.601 135.73Z" fill="#4E2209"/>
<path d="M241.193 208.784C241.08 208.598 240.837 208.169 240.514 207.53C240.821 207.935 241.08 208.541 241.193 208.784Z" fill="#4D230A"/>
<path d="M293.684 130.289C292.164 130.92 290.692 131.647 289.302 132.553C287.992 133.402 286.253 133.984 286.108 135.876C280.917 137.453 277.99 141.496 275.564 146.023C273.462 149.937 272.403 154.303 270.381 158.257C264.819 169.148 261.261 180.161 267.81 191.998C268.514 193.283 268.91 194.949 267.131 195.871C265.344 196.801 263.501 196.873 261.924 195.321C260.849 194.254 260.347 192.839 259.781 191.48C257.695 186.483 254.793 181.931 251.51 177.703C247.669 172.754 241.629 172.762 238.064 177.031C237.829 178.075 237.53 179.247 237.15 180.573C237.15 180.581 237.142 180.597 237.142 180.605C233.714 192.572 238.557 203.738 240.505 207.522C240.505 207.522 240.514 207.522 240.514 207.53C240.837 208.169 241.08 208.597 241.193 208.783C241.225 208.832 241.241 208.872 241.249 208.88C246.57 214.67 253.232 217.491 260.962 218.057C260.412 218.397 259.927 218.753 259.474 219.149C259.668 219.181 259.862 219.214 260.056 219.23C255.189 226.078 257.776 234.107 257.234 241.627C256.887 246.381 257.817 251.216 256.305 255.898C256.086 255.51 255.876 255.121 255.682 254.725C255.1 253.545 254.655 252.324 254.55 250.998C254.526 250.755 254.518 250.497 254.526 250.238C254.542 249.486 254.558 248.726 254.574 247.966C254.372 247.691 254.089 247.465 253.871 247.198C253.685 246.979 253.547 246.737 253.531 246.405C253.523 246.389 253.523 246.373 253.523 246.357C253.499 246.227 253.467 246.098 253.418 245.985C252.925 244.562 251.292 244.335 250.354 243.365L250.305 243.317C250.208 243.203 250.111 243.098 250.022 242.985C249.707 242.573 249.513 242.136 249.594 241.603C249.61 241.522 249.626 241.441 249.65 241.352C249.658 241.328 249.674 241.311 249.683 241.287C250.362 240.147 252.682 241.02 252.707 239.072C252.707 239.007 252.698 238.942 252.698 238.878C252.569 238.603 252.44 238.336 252.31 238.061C251.283 235.918 250.281 233.768 249.149 231.69C248.672 230.8 248.171 229.927 247.629 229.07C247.41 228.706 247.184 228.35 246.942 227.995C246.594 227.461 246.254 226.919 245.89 226.394C245.826 226.28 245.745 226.175 245.672 226.07C245.664 226.062 245.664 226.046 245.656 226.038C244.492 223.847 242.082 222.076 242.915 219.23C242.988 219.003 243.069 218.769 243.182 218.526C238.282 211.144 233.544 196.809 231.021 188.392C229.954 184.842 229.275 182.344 229.145 181.875C229.145 181.85 229.137 181.826 229.137 181.81C229.129 181.802 229.129 181.794 229.129 181.786C228.377 177.816 228.143 173.716 227.908 169.617H227.916C228.102 169.617 228.288 169.609 228.45 169.585C230.973 169.31 231.482 166.925 232.42 165.13C235.978 158.257 240.166 151.829 246.27 146.961C253.151 141.488 260.752 137.081 268.352 132.69C268.376 133.127 268.781 133.434 269.67 133.564C271.271 133.79 272.888 133.548 274.465 133.256C280.844 132.092 287.304 131.453 293.684 130.289Z" fill="#4E2208"/>
<path d="M255.683 254.726C255.877 255.122 256.087 255.51 256.305 255.898C256.063 255.785 255.844 255.656 255.642 255.526C254.025 254.499 253.677 253.068 254.122 251.386C254.219 251.014 254.357 250.634 254.526 250.238C254.518 250.497 254.526 250.756 254.551 250.998C254.656 252.324 255.1 253.545 255.683 254.726Z" fill="#4D230A"/>
<path d="M260.962 218.058C260.631 218.446 260.324 218.834 260.057 219.23C259.863 219.214 259.669 219.181 259.475 219.149C259.927 218.753 260.413 218.397 260.962 218.058Z" fill="#4D230A"/>
<path d="M350.064 324.115C350.218 324.495 350.388 324.924 350.574 325.393C350.331 324.997 350.145 324.576 350.064 324.115Z" fill="#A2C2EA"/>
<path d="M261.043 265.011C257.857 262.658 254.639 260.353 251.502 257.936C250.839 257.426 250.273 256.909 249.861 256.391C249.044 255.397 248.793 254.386 249.521 253.4C250.006 252.729 250.944 252.066 252.456 251.419C253.184 251.112 253.839 250.634 254.526 250.238C254.518 250.497 254.526 250.756 254.55 250.998C254.655 252.324 255.1 253.545 255.682 254.726C255.876 255.122 256.086 255.51 256.305 255.898C256.725 259.092 259.733 260.952 260.76 263.846C260.889 264.218 260.986 264.598 261.043 265.011Z" fill="#C1B7C2"/>
<path d="M299.886 115.169C305.198 113.552 310.519 111.935 315.823 110.293C316.672 110.035 317.488 109.258 318.273 110.374C307.39 114.045 296.741 118.314 286.262 122.988C284.823 123.626 282.761 123.74 282.276 125.842C280.449 128.001 278.662 125.801 276.851 125.785C283.934 120.95 292.156 118.589 299.886 115.169Z" fill="#CEAB44"/>
<path d="M391.229 123.384C390.347 124.758 391.714 126.141 391.204 127.524C384.623 125.842 377.993 124.88 371.273 126.586C364.207 128.381 357.035 127.507 349.96 127.127C338.939 126.537 327.984 126.028 317.028 127.904C314.076 128.405 310.947 129.238 307.996 127.588C325.275 124.597 342.707 124.023 360.204 124.071C370.546 124.095 380.887 123.626 391.229 123.384Z" fill="#461607"/>
<path d="M170.55 329.662C184.247 316.418 203.879 314 218.408 323.776C218.255 326.953 218.085 330.123 214.196 331.174C206.725 327.042 199.108 323.048 190.214 324.56C180.487 326.209 171.715 330.074 164.834 337.481C163.621 335.087 166.241 334.764 167.073 333.519C168.028 332.096 169.37 330.939 170.55 329.662Z" fill="#F3D5B4"/>
<path d="M250.362 255.591L249.861 256.391C249.044 255.397 248.793 254.386 249.521 253.399C250.184 254.612 250.362 255.591 250.362 255.591Z" fill="#FEFEFE"/>
<path d="M252.392 532.771C253.483 538.398 253.976 544.276 254.47 549.977C256.176 574.92 255.731 600.042 254.429 624.986C251.446 667.128 248.001 709.391 244.031 751.468C240.554 785.548 236.132 820.648 231.038 854.478C228.458 869.5 226.631 885.542 223.47 899.999C226.089 877.068 229.291 854.235 232.016 831.329C236.479 796.399 241.889 752.139 245.899 716.87C248.842 690.196 251.049 663.247 251.971 636.403C253.055 607.634 254.389 578.818 253.394 550.033C253.257 546.273 253.055 542.287 252.739 538.535C252.602 536.619 252.416 534.711 252.157 532.811L252.392 532.771Z" fill="#000018"/>
<path d="M181.078 774.747C181.078 774.747 168.375 859.976 153.7 900.016H128.57C128.093 898.075 127.616 896.119 127.155 894.146C115.019 842.617 108.478 781.256 105.219 741.127C108.922 741.847 112.65 742.413 116.28 743.464C117.323 743.763 118.334 743.917 119.11 743.246C119.328 743.06 119.522 742.801 119.7 742.469C114.801 729.25 109.973 715.989 104.928 702.826C104.209 700.958 103.594 699.099 103.182 697.198L152.172 630.242L181.078 774.747Z" fill="#1C254C"/>
<path d="M119.7 742.468C119.522 742.8 119.328 743.058 119.11 743.244C118.334 743.915 117.323 743.762 116.28 743.463C112.649 742.412 108.922 741.846 105.219 741.126C103.181 716.004 102.421 699.202 102.381 698.321C102.381 698.297 102.381 698.289 102.381 698.289L103.181 697.197C103.594 699.097 104.208 700.957 104.928 702.825C109.973 715.988 114.8 729.248 119.7 742.468Z" fill="#1C254C"/>
<rect y="307" width="567" height="593" fill="url(#paint0_linear_613_136)"/>
<defs>
<linearGradient id="paint0_linear_613_136" x1="283.5" y1="307" x2="283.5" y2="900" gradientUnits="userSpaceOnUse">
<stop stop-color="#0053FF" stop-opacity="0"/>
<stop offset="1" stop-color="#0053FF"/>
</linearGradient>
</defs>
</svg>
