<svg width="25" height="25" viewBox="0 0 25 25" fill="none" xmlns="http://www.w3.org/2000/svg">
<path d="M9.99668 3.02531C7.49821 2.91953 5.56795 3.20735 5.56795 3.20735C4.3491 3.2945 2.01329 3.97782 2.01331 7.96851C2.01333 11.9253 1.98747 16.8033 2.01331 18.7479C2.01331 19.936 2.74893 22.7073 5.29509 22.8558C8.38993 23.0364 13.9646 23.0748 16.5223 22.8558C17.207 22.8172 19.4865 22.2797 19.775 19.7996C20.0739 17.2303 20.0144 15.4447 20.0144 15.0197" stroke="#616161" stroke-width="1.83077" stroke-linecap="round" stroke-linejoin="round"/>
<path d="M19.9099 6.42235C19.9099 7.2079 19.2731 7.84471 18.4875 7.84471C17.702 7.84471 17.0652 7.2079 17.0652 6.42235C17.0652 5.63681 17.702 5 18.4875 5C19.2731 5 19.9099 5.63681 19.9099 6.42235Z" stroke="#0053FF" stroke-width="1.83" stroke-linecap="round" stroke-linejoin="round"/>
<path d="M23.0621 7.48601C23.3271 7.41459 23.4596 7.37885 23.5119 7.31053C23.5642 7.24225 23.5642 7.13235 23.5642 6.9126V5.931C23.5642 5.71124 23.5642 5.60134 23.5119 5.53307C23.4595 5.46474 23.3271 5.429 23.0621 5.35757C22.0721 5.09056 21.4524 4.05546 21.7079 3.07186C21.7782 2.80136 21.8133 2.66611 21.7798 2.58678C21.7462 2.50746 21.65 2.45279 21.4574 2.34346L20.5819 1.84638C20.3929 1.73909 20.2985 1.68545 20.2137 1.69687C20.1289 1.7083 20.0332 1.80374 19.8419 1.9946C19.1011 2.73358 17.8755 2.73355 17.1347 1.99456C16.9434 1.80369 16.8477 1.70825 16.7629 1.69682C16.6782 1.6854 16.5837 1.73904 16.3947 1.84633L15.5192 2.34342C15.3267 2.45274 15.2304 2.5074 15.1968 2.58671C15.1633 2.66603 15.1984 2.8013 15.2687 3.07183C15.5241 4.05546 14.9039 5.09058 13.9137 5.35758C13.6487 5.429 13.5163 5.46474 13.4639 5.53301C13.4116 5.60134 13.4116 5.71124 13.4116 5.931V6.9126C13.4116 7.13235 13.4116 7.24225 13.4639 7.31053C13.5163 7.37885 13.6487 7.41459 13.9137 7.48601C14.9037 7.75303 15.5234 8.78813 15.2679 9.77171C15.1976 10.0422 15.1625 10.1775 15.196 10.2568C15.2296 10.3361 15.3258 10.3908 15.5184 10.5001L16.3939 10.9972C16.5829 11.1045 16.6774 11.1581 16.7622 11.1467C16.847 11.1353 16.9426 11.0398 17.1339 10.849C17.875 10.1094 19.1015 10.1093 19.8427 10.8489C20.034 11.0398 20.1296 11.1353 20.2145 11.1467C20.2992 11.1581 20.3937 11.1044 20.5827 10.9972L21.4582 10.5001C21.6508 10.3908 21.7471 10.3361 21.7806 10.2568C21.8141 10.1774 21.779 10.0422 21.7087 9.77166C21.4531 8.78813 22.0722 7.75308 23.0621 7.48601Z" stroke="#0053FF" stroke-width="1.83" stroke-linecap="round" stroke-linejoin="round"/>
<path d="M6.98145 14.0205H10.9814" stroke="#616161" stroke-width="1.83077" stroke-linecap="round"/>
<path d="M6.98157 18.0186H14.9815" stroke="#616161" stroke-width="1.83077" stroke-linecap="round"/>
</svg>
