<svg width="24" height="24" viewBox="0 0 24 24" fill="none" xmlns="http://www.w3.org/2000/svg">
<path d="M8.18649 21.9668C6.42382 21.8828 5.13745 21.5857 4.2448 20.5355C3 19.0711 3 16.714 3 12C3 7.28596 3 4.92893 4.2448 3.46447C5.48959 2 7.49306 2 11.5 2C15.5069 2 17.5104 2 18.7552 3.46447C19.4492 4.28094 19.7563 5.37486 19.8922 7" stroke="#616161" stroke-width="1.83" stroke-linecap="round" stroke-linejoin="round"/>
<path d="M8 8H15M8 13H11" stroke="#616161" stroke-width="1.83" stroke-linecap="round" stroke-linejoin="round"/>
<path d="M13 23C13 22.0344 13.3285 21.0576 14.1309 20.5204C15.0932 19.8761 16.2524 19.5 17.5 19.5C18.7476 19.5 19.9068 19.8761 20.8691 20.5204C21.6715 21.0576 22 22.0344 22 23" stroke="#0053FF" stroke-width="1.83077" stroke-linecap="round" stroke-linejoin="round"/>
<path d="M17.5 17C18.8807 17 20 15.8807 20 14.5C20 13.1193 18.8807 12 17.5 12C16.1193 12 15 13.1193 15 14.5C15 15.8807 16.1193 17 17.5 17Z" stroke="#0053FF" stroke-width="1.83077" stroke-linecap="round" stroke-linejoin="round"/>
</svg>
