<svg width="37" height="36" viewBox="0 0 37 36" fill="none" xmlns="http://www.w3.org/2000/svg">
<path d="M8.5 0.375H28.5C32.7112 0.375 36.125 3.78883 36.125 8V28C36.125 32.2112 32.7112 35.625 28.5 35.625H8.5C4.28883 35.625 0.875 32.2112 0.875 28V8C0.875 3.78883 4.28883 0.375 8.5 0.375Z" fill="white"/>
<path d="M8.5 0.375H28.5C32.7112 0.375 36.125 3.78883 36.125 8V28C36.125 32.2112 32.7112 35.625 28.5 35.625H8.5C4.28883 35.625 0.875 32.2112 0.875 28V8C0.875 3.78883 4.28883 0.375 8.5 0.375Z" stroke="#616161" stroke-width="0.75"/>
<path d="M24.75 12.582L24.2336 20.9363C24.1016 23.0707 24.0357 24.1379 23.5007 24.9053C23.2361 25.2846 22.8956 25.6048 22.5006 25.8454C21.7017 26.332 20.6325 26.332 18.4939 26.332C16.3526 26.332 15.2819 26.332 14.4825 25.8444C14.0873 25.6034 13.7467 25.2827 13.4822 24.9027C12.9474 24.1342 12.8829 23.0654 12.7538 20.928L12.25 12.582" stroke="#616161" stroke-linecap="round"/>
<path d="M11 12.5846H26M21.8797 12.5846L21.3109 11.4111C20.933 10.6315 20.744 10.2417 20.4181 9.99864C20.3458 9.94472 20.2693 9.89675 20.1892 9.85522C19.8283 9.66797 19.3951 9.66797 18.5287 9.66797C17.6407 9.66797 17.1967 9.66797 16.8297 9.86307C16.7484 9.90631 16.6708 9.95622 16.5977 10.0123C16.268 10.2652 16.0839 10.6693 15.7155 11.4774L15.2108 12.5846" stroke="#616161" stroke-linecap="round"/>
<path d="M16.416 21.75V16.75" stroke="#616161" stroke-linecap="round"/>
<path d="M20.584 21.75V16.75" stroke="#616161" stroke-linecap="round"/>
</svg>
