<svg width="40" height="40" viewBox="0 0 40 40" fill="none" xmlns="http://www.w3.org/2000/svg">
<path d="M24.9675 11.6924C24.9675 11.6924 25.8009 12.5257 26.6342 14.1924C26.6342 14.1924 29.2812 10.0257 31.6342 9.19238" stroke="#0053FE" stroke-width="1.83" stroke-linecap="round" stroke-linejoin="round"/>
<path d="M16.658 3.37194C12.4939 3.19564 9.27679 3.67534 9.27679 3.67534C7.24537 3.82059 3.35235 4.95945 3.35239 11.6106C3.35242 18.2052 3.30932 26.3352 3.35239 29.5762C3.35239 31.5564 4.57842 36.1752 8.82202 36.4227C13.9801 36.7237 23.2712 36.7877 27.534 36.4227C28.6752 36.3584 32.4743 35.4625 32.9552 31.329C33.4533 27.0469 33.3542 24.0709 33.3542 23.3625" stroke="#616161" stroke-width="1.83" stroke-linecap="round" stroke-linejoin="round"/>
<path d="M36.6663 11.6927C36.6663 16.2951 32.9318 20.0261 28.325 20.0261C23.7181 20.0261 19.9836 16.2951 19.9836 11.6927C19.9836 7.09034 23.7181 3.35938 28.325 3.35938C32.9318 3.35938 36.6663 7.09034 36.6663 11.6927Z" stroke="#0053FE" stroke-width="1.83" stroke-linecap="round"/>
<path d="M11.634 21.6924H18.3006" stroke="#616161" stroke-width="1.83" stroke-linecap="round"/>
<path d="M11.634 28.3594H24.9673" stroke="#616161" stroke-width="1.83" stroke-linecap="round"/>
</svg>
