<svg width="30" height="30" viewBox="0 0 30 30" fill="none" xmlns="http://www.w3.org/2000/svg">
<path d="M8 0.5H22C26.1421 0.5 29.5 3.85786 29.5 8V22C29.5 26.1421 26.1421 29.5 22 29.5H8C3.85786 29.5 0.5 26.1421 0.5 22V8C0.5 3.85786 3.85786 0.5 8 0.5Z" fill="white"/>
<path d="M8 0.5H22C26.1421 0.5 29.5 3.85786 29.5 8V22C29.5 26.1421 26.1421 29.5 22 29.5H8C3.85786 29.5 0.5 26.1421 0.5 22V8C0.5 3.85786 3.85786 0.5 8 0.5Z" stroke="#E5E5E5"/>
<path d="M8.66602 15.9997V11.333H21.3327V15.9997C21.3327 18.5138 21.3327 19.7709 20.5517 20.5519C19.7706 21.333 18.5135 21.333 15.9993 21.333H13.9993C11.4852 21.333 10.2281 21.333 9.44706 20.5519C8.66602 19.7709 8.66602 18.5138 8.66602 15.9997Z" stroke="#808080" stroke-linecap="round" stroke-linejoin="round"/>
<path d="M8.66602 11.3337L9.06602 10.8003C9.85116 9.75347 10.2437 9.23005 10.8068 8.94852C11.3698 8.66699 12.0241 8.66699 13.3327 8.66699H16.666C17.9746 8.66699 18.6289 8.66699 19.1919 8.94852C19.755 9.23005 20.1475 9.75347 20.9327 10.8003L21.3327 11.3337" stroke="#808080" stroke-linecap="round" stroke-linejoin="round"/>
<path d="M17 16.6667C17 16.6667 15.527 18.6667 15 18.6667C14.473 18.6667 13 16.6667 13 16.6667M15 18.3333V14" stroke="#808080" stroke-linecap="round" stroke-linejoin="round"/>
</svg>
