<svg width="30" height="30" viewBox="0 0 30 30" fill="none" xmlns="http://www.w3.org/2000/svg">
<path d="M8 0.5H22C26.1421 0.5 29.5 3.85786 29.5 8V22C29.5 26.1421 26.1421 29.5 22 29.5H8C3.85786 29.5 0.5 26.1421 0.5 22V8C0.5 3.85786 3.85786 0.5 8 0.5Z" fill="white"/>
<path d="M8 0.5H22C26.1421 0.5 29.5 3.85786 29.5 8V22C29.5 26.1421 26.1421 29.5 22 29.5H8C3.85786 29.5 0.5 26.1421 0.5 22V8C0.5 3.85786 3.85786 0.5 8 0.5Z" stroke="#E5E5E5"/>
<path d="M17.9506 10.0701L18.6106 9.41007C19.1574 8.86331 20.0439 8.86331 20.5906 9.41007C21.1373 9.95683 21.1373 10.8433 20.5906 11.39L19.9306 12.05M17.9506 10.0701L13.511 14.5096C13.1727 14.848 12.9327 15.2719 12.8166 15.7361L12.334 17.6667L14.2646 17.184C14.7288 17.068 15.1527 16.8279 15.4911 16.4896L19.9306 12.05M17.9506 10.0701L19.9306 12.05" stroke="#808080" stroke-linejoin="round"/>
<path d="M19.6666 15.9997C19.6666 18.1913 19.6666 19.2871 19.0613 20.0247C18.9505 20.1597 18.8267 20.2835 18.6917 20.3943C17.9541 20.9997 16.8583 20.9997 14.6666 20.9997H14.3333C11.8192 20.9997 10.5621 20.9997 9.78106 20.2186C9.00002 19.4376 9 18.1805 9 15.6663V15.333C9 13.1414 9 12.0455 9.60529 11.308C9.71611 11.1729 9.83993 11.0491 9.97496 10.9383C10.7125 10.333 11.8083 10.333 14 10.333" stroke="#808080" stroke-linecap="round" stroke-linejoin="round"/>
</svg>
