<svg width="37" height="36" viewBox="0 0 37 36" fill="none" xmlns="http://www.w3.org/2000/svg">
<path d="M8.5 0.375H28.5C32.7112 0.375 36.125 3.78883 36.125 8V28C36.125 32.2112 32.7112 35.625 28.5 35.625H8.5C4.28883 35.625 0.875 32.2112 0.875 28V8C0.875 3.78883 4.28883 0.375 8.5 0.375Z" fill="white"/>
<path d="M8.5 0.375H28.5C32.7112 0.375 36.125 3.78883 36.125 8V28C36.125 32.2112 32.7112 35.625 28.5 35.625H8.5C4.28883 35.625 0.875 32.2112 0.875 28V8C0.875 3.78883 4.28883 0.375 8.5 0.375Z" stroke="#616161" stroke-width="0.75"/>
<path d="M11.6515 21.591L11 25.5L14.909 24.8485C15.5879 24.7354 16.2144 24.413 16.701 23.9263L25.5165 15.1107C26.1612 14.466 26.1612 13.4207 25.5164 12.776L23.7239 10.9835C23.0792 10.3388 22.0338 10.3388 21.3891 10.9836L12.5737 19.7992C12.0871 20.2857 11.7646 20.9122 11.6515 21.591Z" stroke="#616161" stroke-linecap="round" stroke-linejoin="round"/>
<path d="M20.166 13L23.4993 16.3333" stroke="#616161" stroke-linecap="round" stroke-linejoin="round"/>
</svg>
