<svg width="30" height="30" viewBox="0 0 30 30" fill="none" xmlns="http://www.w3.org/2000/svg">
<path d="M8 0.5H22C26.1421 0.5 29.5 3.85786 29.5 8V22C29.5 26.1421 26.1421 29.5 22 29.5H8C3.85786 29.5 0.5 26.1421 0.5 22V8C0.5 3.85786 3.85786 0.5 8 0.5Z" fill="white"/>
<path d="M8 0.5H22C26.1421 0.5 29.5 3.85786 29.5 8V22C29.5 26.1421 26.1421 29.5 22 29.5H8C3.85786 29.5 0.5 26.1421 0.5 22V8C0.5 3.85786 3.85786 0.5 8 0.5Z" stroke="#E5E5E5"/>
<path d="M21.3614 14.364C21.564 14.6482 21.6654 14.7903 21.6654 15.0007C21.6654 15.211 21.564 15.3531 21.3614 15.6373C20.4506 16.9144 18.1248 19.6673 14.9987 19.6673C11.8726 19.6673 9.54676 16.9144 8.63606 15.6373C8.43337 15.3531 8.33203 15.211 8.33203 15.0007C8.33203 14.7903 8.43337 14.6482 8.63606 14.364C9.54676 13.0869 11.8726 10.334 14.9987 10.334C18.1248 10.334 20.4506 13.0869 21.3614 14.364Z" stroke="#808080"/>
<path d="M17 15C17 13.8954 16.1046 13 15 13C13.8954 13 13 13.8954 13 15C13 16.1046 13.8954 17 15 17C16.1046 17 17 16.1046 17 15Z" stroke="#808080"/>
</svg>
