<svg width="24" height="24" viewBox="0 0 24 24" fill="none" xmlns="http://www.w3.org/2000/svg">
<path d="M7.5 12.002H13.5M7.5 8.00195H10.5" stroke="white" stroke-width="1.83077" stroke-linecap="round" stroke-linejoin="round"/>
<path d="M8.49951 20.002C9.54989 20.8717 10.814 21.4258 12.263 21.5208C13.4047 21.5957 14.5966 21.5956 15.736 21.5208C16.1283 21.4951 16.556 21.4027 16.9243 21.253C17.334 21.0865 17.539 21.0032 17.6432 21.0158C17.7473 21.0284 17.8984 21.1384 18.2006 21.3583C18.7334 21.746 19.4046 22.0245 20.4 22.0006C20.9033 21.9885 21.155 21.9824 21.2676 21.7929C21.3803 21.6033 21.24 21.3409 20.9593 20.8161C20.5701 20.0882 20.3235 19.2549 20.6972 18.5872C21.3408 17.6335 21.8874 16.5041 21.9673 15.2843C22.0102 14.6289 22.0102 13.9501 21.9673 13.2947C21.9141 12.4819 21.7168 11.7093 21.4007 11.002" stroke="white" stroke-width="1.83077" stroke-linecap="round" stroke-linejoin="round"/>
<path d="M12.3455 17.4888C15.9011 17.2546 18.7333 14.4089 18.9663 10.8364C19.0119 10.1373 19.0119 9.41326 18.9663 8.71414C18.7333 5.14164 15.9011 2.29596 12.3455 2.0618C11.1325 1.98192 9.86602 1.98208 8.65548 2.0618C5.09992 2.29596 2.26774 5.14164 2.03469 8.71414C1.98909 9.41326 1.98909 10.1373 2.03469 10.8364C2.11957 12.1376 2.70041 13.3423 3.38421 14.3596C3.78125 15.0717 3.51922 15.9606 3.10567 16.737C2.80749 17.2968 2.6584 17.5767 2.77811 17.7789C2.89781 17.9811 3.16521 17.9876 3.7 18.0005C4.75761 18.026 5.47077 17.7289 6.03687 17.3154C6.35793 17.0808 6.51847 16.9635 6.62911 16.9501C6.73975 16.9366 6.95749 17.0254 7.3929 17.2031C7.78423 17.3628 8.23861 17.4613 8.65548 17.4888C9.86602 17.5685 11.1325 17.5686 12.3455 17.4888Z" stroke="white" stroke-width="1.83077" stroke-linecap="round" stroke-linejoin="round"/>
</svg>
