<svg width="18" height="18" viewBox="0 0 18 18" fill="none" xmlns="http://www.w3.org/2000/svg">
<g clip-path="url(#clip0_586_2359)">
<path d="M6.26932 0.592441C4.47084 1.21635 2.91983 2.40055 1.84412 3.9711C0.768402 5.54165 0.224679 7.41577 0.292814 9.31817C0.360948 11.2206 1.03735 13.051 2.22266 14.5406C3.40797 16.0301 5.03972 17.1004 6.87822 17.594C8.36874 17.9786 9.93036 17.9955 11.4288 17.6432C12.7863 17.3383 14.0414 16.6861 15.071 15.7504C16.1427 14.7468 16.9206 13.4701 17.321 12.0576C17.7563 10.5215 17.8337 8.9061 17.5474 7.33541H9.17744V10.8074H14.0248C13.9279 11.3612 13.7203 11.8897 13.4144 12.3614C13.1085 12.8331 12.7106 13.2382 12.2445 13.5524C11.6526 13.944 10.9853 14.2074 10.2856 14.3259C9.58377 14.4564 8.86393 14.4564 8.16213 14.3259C7.45083 14.1788 6.77795 13.8852 6.18635 13.4638C5.23593 12.7911 4.5223 11.8353 4.14729 10.7329C3.76593 9.60987 3.76593 8.39235 4.14729 7.26932C4.41423 6.48212 4.85552 5.76538 5.43822 5.1726C6.10505 4.48177 6.94928 3.98797 7.87829 3.74536C8.80729 3.50275 9.78516 3.52072 10.7046 3.79728C11.4229 4.01777 12.0797 4.40301 12.6228 4.92228C13.1693 4.37853 13.7149 3.83338 14.2596 3.28682C14.5409 2.99291 14.8474 2.71307 15.1245 2.41213C14.2956 1.64077 13.3226 1.04055 12.2613 0.645878C10.3287 -0.055855 8.21413 -0.0747134 6.26932 0.592441Z" fill="white"/>
<path d="M6.27102 0.593124C8.21567 -0.0744834 10.3303 -0.0561214 12.263 0.645155C13.3245 1.04251 14.297 1.64562 15.1248 2.41984C14.8435 2.72078 14.5468 3.00203 14.2599 3.29453C13.7143 3.83922 13.1691 4.38203 12.6245 4.92297C12.0814 4.40369 11.4246 4.01846 10.7063 3.79797C9.78717 3.52043 8.80932 3.50143 7.88007 3.74304C6.95083 3.98466 6.10608 4.47755 5.43852 5.16766C4.85581 5.76044 4.41452 6.47718 4.14758 7.26437L1.23242 5.00734C2.27587 2.93813 4.08254 1.35535 6.27102 0.593124Z" fill="#E33629"/>
<path d="M0.457574 7.23984C0.61426 6.4633 0.874392 5.71129 1.23101 5.00391L4.14617 7.26656C3.76481 8.3896 3.76481 9.60712 4.14617 10.7302C3.17492 11.4802 2.2032 12.2339 1.23101 12.9914C0.338255 11.2144 0.0659794 9.18961 0.457574 7.23984Z" fill="#F8BD00"/>
<path d="M9.17836 7.33594H17.5484C17.8347 8.90662 17.7572 10.522 17.322 12.0581C16.9215 13.4707 16.1436 14.7474 15.072 15.7509C14.1312 15.0169 13.1862 14.2884 12.2454 13.5544C12.7118 13.2398 13.1099 12.8342 13.4158 12.3621C13.7217 11.8899 13.9292 11.3608 14.0257 10.8066H9.17836C9.17695 9.65062 9.17836 8.49328 9.17836 7.33594Z" fill="#587DBD"/>
<path d="M1.23047 12.9917C2.20266 12.2417 3.17437 11.488 4.14562 10.7305C4.52139 11.8332 5.23604 12.7891 6.1875 13.4614C6.78095 13.8808 7.45528 14.172 8.1675 14.3164C8.8693 14.4469 9.58914 14.4469 10.2909 14.3164C10.9907 14.198 11.6579 13.9345 12.2498 13.543C13.1906 14.277 14.1356 15.0055 15.0764 15.7395C14.0469 16.6757 12.7918 17.3284 11.4342 17.6338C9.93573 17.986 8.37411 17.9691 6.88359 17.5845C5.70474 17.2698 4.60361 16.7149 3.64922 15.9547C2.63905 15.1527 1.814 14.142 1.23047 12.9917Z" fill="#319F43"/>
</g>
<defs>
<clipPath id="clip0_586_2359">
<rect width="18" height="18" fill="white"/>
</clipPath>
</defs>
</svg>
