<svg width="24" height="26" viewBox="0 0 24 26" fill="none" xmlns="http://www.w3.org/2000/svg">
<path d="M19.1544 10.0379C18.952 10.2274 18.6815 10.3333 18.4 10.3333C18.1185 10.3333 17.8481 10.2274 17.6457 10.0379C15.7925 8.29213 13.3091 6.34193 14.5202 3.51048C15.175 1.97963 16.7469 1 18.4 1C20.0532 1 21.6251 1.97963 22.2799 3.51048C23.4895 6.33829 21.0122 8.2981 19.1544 10.0379Z" stroke="white" stroke-width="1.83" stroke-linecap="round" stroke-linejoin="round"/>
<path d="M18.6001 4.59961H18.6091" stroke="white" stroke-width="1.83" stroke-linecap="round" stroke-linejoin="round"/>
<path d="M6.15436 24.7049C5.95201 24.8944 5.68153 25.0003 5.40004 25.0003C5.11854 25.0003 4.84806 24.8944 4.64572 24.7049C2.79249 22.9591 0.30908 21.0089 1.52017 18.1775C2.175 16.6466 3.74692 15.667 5.40004 15.667C7.05315 15.667 8.62507 16.6466 9.2799 18.1775C10.4895 21.0053 8.01215 22.9651 6.15436 24.7049Z" stroke="white" stroke-width="1.83" stroke-linecap="round" stroke-linejoin="round"/>
<path d="M12 6.40039H10.74C9.11633 6.40039 7.80005 7.94501 7.80005 9.85039C7.80005 11.7558 9.11633 13.3004 10.74 13.3004H13.26C14.8838 13.3004 16.2 14.845 16.2 16.7504C16.2 18.6558 14.8838 20.2004 13.26 20.2004H12" stroke="white" stroke-width="1.83" stroke-linecap="round" stroke-linejoin="round"/>
<path d="M5.3999 19.5996H5.4089" stroke="white" stroke-width="2" stroke-linecap="round" stroke-linejoin="round"/>
</svg>
