<svg width="40" height="42" viewBox="0 0 40 42" fill="none" xmlns="http://www.w3.org/2000/svg">
<path d="M31.9241 15.5253C31.5868 15.8298 31.136 16 30.6669 16C30.1977 16 29.7469 15.8298 29.4097 15.5253C26.321 12.7195 22.182 9.58525 24.2005 5.0347C25.2918 2.5744 27.9117 1 30.6669 1C33.4221 1 36.042 2.5744 37.1333 5.0347C39.1493 9.5794 35.0204 12.7291 31.9241 15.5253Z" stroke="#0053FF" stroke-width="1.83" stroke-linecap="round" stroke-linejoin="round"/>
<path d="M31 7H31.015" stroke="#0053FF" stroke-width="3" stroke-linecap="round" stroke-linejoin="round"/>
<path d="M10.2573 40.5253C9.9201 40.8298 9.4693 41 9.00014 41C8.53099 41 8.08019 40.8298 7.74294 40.5253C4.65423 37.7195 0.515215 34.5853 2.5337 30.0347C3.62508 27.5744 6.24494 26 9.00014 26C11.7553 26 14.3752 27.5744 15.4666 30.0347C17.4826 34.5794 13.3537 37.7291 10.2573 40.5253Z" stroke="#0053FF" stroke-width="1.83" stroke-linecap="round" stroke-linejoin="round"/>
<path d="M20 10H17.9C15.1938 10 13 12.5744 13 15.75C13 18.9257 15.1938 21.5 17.9 21.5H22.1C24.8062 21.5 27 24.0743 27 27.25C27 30.4257 24.8062 33 22.1 33H20" stroke="#616161" stroke-width="1.83" stroke-linecap="round" stroke-linejoin="round" stroke-dasharray="9 9"/>
<path d="M9 32H9.015" stroke="#0053FF" stroke-width="3" stroke-linecap="round" stroke-linejoin="round"/>
</svg>
