<svg width="40" height="40" viewBox="0 0 40 40" fill="none" xmlns="http://www.w3.org/2000/svg">
<path d="M19.9999 7.64648V37.6465M19.9999 37.6465H14.7058M19.9999 37.6465H25.294" stroke="#616161" stroke-width="1.83" stroke-linecap="round" stroke-linejoin="round"/>
<path d="M5.88232 12.9406H7.73209C9.96172 12.9406 12.125 12.0071 13.866 10.2935C17.4521 6.76413 22.5479 6.76413 26.1339 10.2935C27.875 12.0071 30.0381 12.9406 32.2679 12.9406H34.1176" stroke="#616161" stroke-width="1.83" stroke-linecap="round" stroke-linejoin="round"/>
<path d="M22.6471 4.9996C22.6471 6.46153 21.462 7.64666 20.0001 7.64666C18.5382 7.64666 17.353 6.46153 17.353 4.9996C17.353 3.53766 18.5382 2.35254 20.0001 2.35254C21.462 2.35254 22.6471 3.53766 22.6471 4.9996Z" stroke="#616161" stroke-width="1.83" stroke-linecap="round" stroke-linejoin="round"/>
<path d="M12.9412 21.764L8.52944 12.9404L4.11768 21.764" stroke="#0053FE" stroke-width="1.83" stroke-linecap="round" stroke-linejoin="round"/>
<path d="M8.5295 28.8235C10.9202 28.8235 13.002 27.3522 14.0835 25.1792C14.6672 24.0062 14.959 23.4198 14.4263 22.5923C13.8935 21.7646 13.0119 21.7646 11.2485 21.7646H5.81053C4.04715 21.7646 3.16547 21.7646 2.63272 22.5923C2.09999 23.4198 2.39182 24.0062 2.9755 25.1792C4.057 27.3522 6.13882 28.8235 8.5295 28.8235Z" stroke="#0053FE" stroke-width="1.83" stroke-linecap="round" stroke-linejoin="round"/>
<path d="M35.8821 21.764L31.4704 12.9404L27.0586 21.764" stroke="#0053FE" stroke-width="1.83" stroke-linecap="round" stroke-linejoin="round"/>
<path d="M31.4704 28.8235C33.8611 28.8235 35.9429 27.3522 37.0245 25.1792C37.6081 24.0062 37.8999 23.4198 37.3672 22.5923C36.8344 21.7646 35.9528 21.7646 34.1893 21.7646H28.7515C26.9881 21.7646 26.1064 21.7646 25.5737 22.5923C25.0409 23.4198 25.3328 24.0062 25.9164 25.1792C26.9979 27.3522 29.0798 28.8235 31.4704 28.8235Z" stroke="#0053FE" stroke-width="1.83" stroke-linecap="round" stroke-linejoin="round"/>
</svg>
