<svg width="24" height="24" viewBox="0 0 24 24" fill="none" xmlns="http://www.w3.org/2000/svg">
<path d="M12 4.58789V22.5879M12 22.5879H8.82349M12 22.5879H15.1764" stroke="white" stroke-width="1.83" stroke-linecap="round" stroke-linejoin="round"/>
<path d="M3.5293 7.76436H4.63916C5.97694 7.76436 7.27489 7.20424 8.31952 6.17613C10.4712 4.05848 13.5286 4.05848 15.6803 6.17613C16.7249 7.20424 18.0228 7.76436 19.3606 7.76436H20.4705" stroke="white" stroke-width="1.83" stroke-linecap="round" stroke-linejoin="round"/>
<path d="M13.5881 2.99937C13.5881 3.87653 12.877 4.5876 11.9999 4.5876C11.1227 4.5876 10.4116 3.87653 10.4116 2.99937C10.4116 2.12221 11.1227 1.41113 11.9999 1.41113C12.877 1.41113 13.5881 2.12221 13.5881 2.99937Z" stroke="white" stroke-width="1.83" stroke-linecap="round" stroke-linejoin="round"/>
<path d="M7.76482 13.0588L5.11776 7.76465L2.4707 13.0588" stroke="white" stroke-width="1.83" stroke-linecap="round" stroke-linejoin="round"/>
<path d="M5.11775 17.2939C6.55215 17.2939 7.80125 16.4111 8.45014 15.1073C8.80036 14.4035 8.97546 14.0517 8.65582 13.5552C8.33617 13.0586 7.80716 13.0586 6.74913 13.0586H3.48637C2.42834 13.0586 1.89933 13.0586 1.57968 13.5552C1.26004 14.0517 1.43514 14.4035 1.78535 15.1073C2.43425 16.4111 3.68334 17.2939 5.11775 17.2939Z" stroke="white" stroke-width="1.83" stroke-linecap="round" stroke-linejoin="round"/>
<path d="M21.5295 13.0588L18.8824 7.76465L16.2354 13.0588" stroke="white" stroke-width="1.83" stroke-linecap="round" stroke-linejoin="round"/>
<path d="M18.8824 17.2939C20.3168 17.2939 21.5659 16.4111 22.2148 15.1073C22.565 14.4035 22.7401 14.0517 22.4205 13.5552C22.1008 13.0586 21.5718 13.0586 20.5137 13.0586H17.2511C16.193 13.0586 15.664 13.0586 15.3443 13.5552C15.0247 14.0517 15.1998 14.4035 15.55 15.1073C16.1989 16.4111 17.448 17.2939 18.8824 17.2939Z" stroke="white" stroke-width="1.83" stroke-linecap="round" stroke-linejoin="round"/>
</svg>
