<svg width="1920" height="980" viewBox="0 0 1920 980" fill="none" xmlns="http://www.w3.org/2000/svg">
<g clip-path="url(#clip0_613_137)">
<path d="M199.565 254.981C188.534 232.791 167.189 217 145.23 217C131.461 217 119.995 223.219 112.522 233.329C105.432 227.57 97.0376 224.089 88.5406 224.089C73.5684 224.089 62.5633 234.762 59.9527 249.836C53.0169 246.484 45.4925 244.411 37.8912 244.078C22.9447 243.387 11.1205 249.529 5.05484 259.511C2.23956 257.847 -0.934025 256.798 -4.18439 256.644C-12.7838 256.26 -18.3887 262.454 -16.6996 270.465C-16.5972 270.977 -16.4692 271.463 -16.3413 271.949H0.806321H14.4476H61.8467H85.1623H103.308H131.23H136.298H205.579H226.003C226.617 264.143 210.263 255.39 199.565 254.981Z" fill="url(#paint0_linear_613_137)" fill-opacity="0.25"/>
<path d="M667.65 175.264C652.781 145.319 623.937 124 594.3 124C575.719 124 560.235 132.395 550.125 146.062C540.579 138.281 529.216 133.598 517.75 133.598C497.531 133.598 482.687 148.032 479.18 168.379C469.813 163.849 459.653 161.059 449.415 160.624C429.248 159.703 413.277 167.995 405.062 181.483C401.274 179.231 396.974 177.823 392.598 177.593C380.978 177.081 373.428 185.424 375.706 196.276C375.86 196.967 376.039 197.607 376.218 198.272H399.38H417.807H481.791H513.271H537.764H575.489H582.322H675.866H703.456C704.172 187.6 682.085 175.776 667.65 175.264Z" fill="url(#paint1_linear_613_137)" fill-opacity="0.25"/>
<path d="M745.686 554.252C745.225 554.2 744.79 554.175 744.355 554.175C740.209 549.158 735.039 545.934 730.176 545.934C726.67 545.934 723.88 547.597 722.037 550.438C714.513 540.687 704.762 534.34 695.676 534.34C688.331 534.34 682.751 538.46 679.629 545.191C675.38 541.378 670.595 539.075 666.064 539.075C658.079 539.075 653.114 546.164 653.037 556.145C649.07 553.919 644.873 552.537 640.778 552.332C632.767 551.871 626.983 555.941 624.603 562.595C622.965 561.469 621.174 560.778 619.433 560.701C615.057 560.445 612.625 564.105 613.7 569.019H623.4H629.978H655.264H667.114H677.658H692.63H720.937H731.968H735.883H751.598H765.7C762.577 561.571 753.876 555.071 745.686 554.252Z" fill="url(#paint2_linear_613_137)" fill-opacity="0.25"/>
<path d="M127.972 546.838C127.373 546.771 126.807 546.738 126.242 546.738C120.85 540.229 114.126 536.044 107.802 536.044C103.243 536.044 99.6147 538.203 97.2183 541.889C87.4329 529.236 74.752 521 62.9363 521C53.3839 521 46.128 526.347 42.0675 535.081C36.5424 530.133 30.3184 527.144 24.4272 527.144C14.0428 527.144 7.58576 536.343 7.48591 549.295C2.32696 546.406 -3.13156 544.613 -8.45693 544.347C-18.8747 543.749 -26.3968 549.03 -29.4921 557.664C-31.6223 556.203 -33.9521 555.306 -36.2154 555.207C-41.9069 554.875 -45.0688 559.624 -43.6709 566H-31.0565H-22.5026H10.3816H25.7919H39.5047H58.9755H95.7871H110.132H115.225H135.661H154C149.939 556.336 138.623 547.9 127.972 546.838Z" fill="url(#paint3_linear_613_137)" fill-opacity="0.25"/>
<path d="M544.045 422.785C543.278 422.708 542.561 422.657 541.844 422.657C535.036 414.365 526.514 409.093 518.503 409.093C512.719 409.093 508.112 411.857 505.092 416.515C492.679 400.442 476.632 390 461.609 390C449.503 390 440.29 396.782 435.145 407.89C428.133 401.594 420.276 397.806 412.777 397.806C399.622 397.806 391.432 409.477 391.278 425.959C391.278 425.959 391.304 425.984 391.253 425.959C384.701 422.273 377.79 420.021 371.059 419.663C357.853 418.921 348.332 425.626 344.391 436.554C341.678 434.712 338.735 433.56 335.868 433.406C328.651 432.997 324.633 439.037 326.424 447.099H342.42H353.272H394.964H414.491H431.869H456.567H503.224H521.421H527.896H553.771H577.01C571.84 434.865 557.508 424.167 544.045 422.785Z" fill="url(#paint4_linear_613_137)" fill-opacity="0.25"/>
<path d="M319.913 1023.43C593.974 1023.43 816.144 1010.46 816.144 994.458C816.144 978.457 593.974 965.486 319.913 965.486C45.8518 965.486 -176.318 978.457 -176.318 994.458C-176.318 1010.46 45.8518 1023.43 319.913 1023.43Z" fill="#374F86"/>
<path d="M480.512 894.466C572.7 899.124 648.098 958.424 666.474 994.459H287.691C287.666 943.912 375.989 889.168 480.512 894.466Z" fill="#407BFF"/>
<path d="M466.487 894.106C471.119 894.106 475.803 894.234 480.512 894.465C572.7 899.123 648.098 958.423 666.474 994.458H287.691C287.666 946.189 368.208 894.106 466.487 894.106Z" fill="#A0BDFF"/>
<path d="M2.68247 834.704L-16.743 931.012C-17.2548 933.597 -15.2841 936.028 -12.648 936.028H17.9873C20.6235 936.028 22.6198 933.597 22.0823 931.012L2.68247 834.704Z" fill="#407BFF"/>
<path opacity="0.3" d="M2.68247 834.704L-16.743 931.012C-17.2548 933.597 -15.2841 936.028 -12.648 936.028H17.9873C20.6235 936.028 22.6198 933.597 22.0823 931.012L2.68247 834.704Z" fill="black"/>
<path d="M30.2464 794.626L3.14291 929.017C2.4263 932.626 5.19038 936.004 8.87584 936.004H51.6169C55.3023 936.004 58.0664 932.626 57.3498 929.017L30.2464 794.626Z" fill="#407BFF"/>
<path opacity="0.3" d="M30.2464 794.626L3.14291 929.017C2.4263 932.626 5.19038 936.004 8.87584 936.004H51.6169C55.3023 936.004 58.0664 932.626 57.3498 929.017L30.2464 794.626Z" fill="black"/>
<path d="M54.8423 809.88L30.6565 929.785C30.0166 933.01 32.4736 936.03 35.7752 936.03H73.9094C77.2109 936.03 79.6679 933.01 79.0281 929.785L54.8423 809.88Z" fill="#407BFF"/>
<path opacity="0.3" d="M54.8423 809.88L30.6565 929.785C30.0166 933.01 32.4736 936.03 35.7752 936.03H73.9094C77.2109 936.03 79.6679 933.01 79.0281 929.785L54.8423 809.88Z" fill="black"/>
<path d="M160.415 809.88L136.229 929.785C135.589 933.01 138.046 936.03 141.347 936.03H179.482C182.783 936.03 185.24 933.01 184.6 929.785L160.415 809.88Z" fill="#407BFF"/>
<path opacity="0.3" d="M160.415 809.88L136.229 929.785C135.589 933.01 138.046 936.03 141.347 936.03H179.482C182.783 936.03 185.24 933.01 184.6 929.785L160.415 809.88Z" fill="black"/>
<path d="M77.0825 821.959L55.2257 930.398C54.637 933.316 56.8637 936.029 59.8325 936.029H94.3069C97.2757 936.029 99.5023 933.316 98.9137 930.398L77.0825 821.959Z" fill="#407BFF"/>
<path opacity="0.3" d="M77.0825 821.959L55.2257 930.398C54.637 933.316 56.8637 936.029 59.8325 936.029H94.3069C97.2757 936.029 99.5023 933.316 98.9137 930.398L77.0825 821.959Z" fill="black"/>
<path d="M185.752 821.959L163.896 930.398C163.307 933.316 165.534 936.029 168.502 936.029H202.977C205.946 936.029 208.172 933.316 207.584 930.398L185.752 821.959Z" fill="#407BFF"/>
<path opacity="0.3" d="M185.752 821.959L163.896 930.398C163.307 933.316 165.534 936.029 168.502 936.029H202.977C205.946 936.029 208.172 933.316 207.584 930.398L185.752 821.959Z" fill="black"/>
<path d="M108.128 776.838L77.6204 928.146C76.8014 932.216 79.9238 936.029 84.0699 936.029H132.186C136.332 936.029 139.454 932.216 138.635 928.146L108.128 776.838Z" fill="#407BFF"/>
<path opacity="0.3" d="M108.128 776.838L77.6204 928.146C76.8014 932.216 79.9238 936.029 84.0699 936.029H132.186C136.332 936.029 139.454 932.216 138.635 928.146L108.128 776.838Z" fill="black"/>
<path d="M135.819 794.011L108.613 929.016C107.871 932.65 110.661 936.029 114.372 936.029H157.318C161.029 936.029 163.793 932.625 163.076 929.016L135.819 794.011Z" fill="#407BFF"/>
<path opacity="0.3" d="M135.819 794.011L108.613 929.016C107.871 932.65 110.661 936.029 114.372 936.029H157.318C161.029 936.029 163.793 932.625 163.076 929.016L135.819 794.011Z" fill="black"/>
<path d="M234.585 825.363L257.465 930.271C258.105 933.24 255.853 936.029 252.807 936.029H216.311C213.266 936.029 211.013 933.214 211.653 930.271L234.585 825.363Z" fill="#407BFF"/>
<path opacity="0.3" d="M234.585 825.363L257.465 930.271C258.105 933.24 255.853 936.029 252.807 936.029H216.311C213.266 936.029 211.013 933.214 211.653 930.271L234.585 825.363Z" fill="black"/>
<path d="M210.527 835.959L231.232 930.834C231.821 933.521 229.773 936.055 227.035 936.055H194.045C191.306 936.055 189.259 933.521 189.848 930.834L210.527 835.959Z" fill="#407BFF"/>
<path opacity="0.3" d="M210.527 835.959L231.232 930.834C231.821 933.521 229.773 936.055 227.035 936.055H194.045C191.306 936.055 189.259 933.521 189.848 930.834L210.527 835.959Z" fill="black"/>
<path d="M257.951 811.414L283.724 929.528C284.44 932.855 281.907 936.028 278.503 936.028H237.425C234.021 936.028 231.462 932.88 232.204 929.528L257.951 811.414Z" fill="#407BFF"/>
<path opacity="0.3" d="M257.951 811.414L283.724 929.528C284.44 932.855 281.907 936.028 278.503 936.028H237.425C234.021 936.028 231.462 932.88 232.204 929.528L257.951 811.414Z" fill="black"/>
<path d="M411.564 412.872H228.263L191.946 994.457H447.881L411.564 412.872Z" fill="#003AB2"/>
<path opacity="0.1" d="M228.263 412.872H287.666L269.52 994.457H191.946L228.263 412.872Z" fill="white"/>
<path opacity="0.1" d="M411.563 412.872H352.161L370.307 994.457H447.881L411.563 412.872Z" fill="black"/>
<path d="M375.298 366.625H264.53L228.264 412.872H411.564L375.298 366.625Z" fill="#003AB2"/>
<path d="M375.272 333.916H264.529V366.624H375.272V333.916Z" fill="#003AB2"/>
<path d="M319.914 238.939L260.844 268.935C259.513 269.626 259.974 271.648 261.484 271.648H378.344C379.854 271.648 380.34 269.626 378.984 268.935L319.914 238.939Z" fill="#003AB2"/>
<path d="M269.955 271.648H266.347V331.076H269.955V271.648Z" fill="#003AB2"/>
<path d="M373.455 271.648H369.847V331.076H373.455V271.648Z" fill="#003AB2"/>
<path opacity="0.2" d="M375.272 333.916H264.529V336.757H375.272V333.916Z" fill="black"/>
<path d="M377.73 331.075H262.124V333.916H377.73V331.075Z" fill="#003AB2"/>
<path d="M378.753 362.633H261.1C258.899 362.633 257.107 364.424 257.107 366.625C257.107 368.826 258.899 370.618 261.1 370.618H378.753C380.954 370.618 382.746 368.826 382.746 366.625C382.72 364.424 380.928 362.633 378.753 362.633Z" fill="#003AB2"/>
<path opacity="0.1" d="M378.753 362.633H261.1C258.899 362.633 257.107 364.424 257.107 366.625C257.107 368.826 258.899 370.618 261.1 370.618H378.753C380.954 370.618 382.746 368.826 382.746 366.625C382.72 364.424 380.928 362.633 378.753 362.633Z" fill="black"/>
<path d="M419.37 558.166H220.457C218.256 558.166 216.465 559.958 216.465 562.159C216.465 564.36 218.256 566.151 220.457 566.151H419.37C421.571 566.151 423.362 564.36 423.362 562.159C423.362 559.932 421.571 558.166 419.37 558.166Z" fill="#003AB2"/>
<path d="M431.962 792.756H207.866C205.665 792.756 203.873 794.547 203.873 796.748C203.873 798.949 205.665 800.741 207.866 800.741H431.962C434.163 800.741 435.954 798.949 435.954 796.748C435.929 794.522 434.163 792.756 431.962 792.756Z" fill="#003AB2"/>
<path opacity="0.3" d="M331.456 467.847H308.396V521.874H331.456V467.847Z" fill="#263238"/>
<path opacity="0.3" d="M331.456 702.437H308.396V756.464H331.456V702.437Z" fill="#263238"/>
<path d="M325.492 247.743H314.334C310.827 247.743 307.961 244.903 307.961 241.371V236.457C307.961 232.95 310.802 230.084 314.334 230.084H325.492C328.999 230.084 331.865 232.925 331.865 236.457V241.396C331.865 244.903 328.999 247.743 325.492 247.743Z" fill="#003AB2"/>
<path opacity="0.3" d="M329.306 279.326H310.521C303.713 279.326 298.159 284.88 298.159 291.688V331.076H341.668V291.688C341.668 284.88 336.114 279.326 329.306 279.326Z" fill="#003AB2"/>
<path d="M144.598 894.465C22.492 899.123 -77.3735 958.423 -101.713 994.458H400.021C400.021 943.911 283.033 889.167 144.598 894.465Z" fill="#407BFF"/>
<path opacity="0.5" d="M144.598 894.465C22.492 899.123 -77.3735 958.423 -101.713 994.458H400.021C400.021 943.911 283.033 889.167 144.598 894.465Z" fill="white"/>
<path d="M383.002 904.472L369.514 990.67C369.207 992.667 370.742 994.458 372.739 994.458H393.265C395.286 994.458 396.822 992.667 396.489 990.67L383.002 904.472Z" fill="#407BFF"/>
<path opacity="0.3" d="M383.002 904.472L369.514 990.67C369.207 992.667 370.742 994.458 372.739 994.458H393.265C395.286 994.458 396.822 992.667 396.489 990.67L383.002 904.472Z" fill="black"/>
<path d="M402.018 868.871L383.181 989.16C382.746 991.924 384.896 994.432 387.686 994.432H416.325C419.14 994.432 421.264 991.924 420.829 989.16L402.018 868.871Z" fill="#407BFF"/>
<path opacity="0.3" d="M402.018 868.871L383.181 989.16C382.746 991.924 384.896 994.432 387.686 994.432H416.325C419.14 994.432 421.264 991.924 420.829 989.16L402.018 868.871Z" fill="black"/>
<path d="M418.986 882.41L402.197 989.723C401.813 992.206 403.732 994.433 406.215 994.433H431.757C434.265 994.433 436.159 992.206 435.775 989.723L418.986 882.41Z" fill="#407BFF"/>
<path opacity="0.3" d="M418.986 882.41L402.197 989.723C401.813 992.206 403.732 994.433 406.215 994.433H431.757C434.265 994.433 436.159 992.206 435.775 989.723L418.986 882.41Z" fill="black"/>
<path d="M491.774 882.41L474.985 989.723C474.601 992.206 476.52 994.433 479.003 994.433H504.545C507.053 994.433 508.947 992.206 508.563 989.723L491.774 882.41Z" fill="#407BFF"/>
<path opacity="0.3" d="M491.774 882.41L474.985 989.723C474.601 992.206 476.52 994.433 479.003 994.433H504.545C507.053 994.433 508.947 992.206 508.563 989.723L491.774 882.41Z" fill="black"/>
<path d="M434.317 893.159L419.114 990.209C418.756 992.436 420.496 994.458 422.749 994.458H445.859C448.112 994.458 449.852 992.436 449.494 990.209L434.317 893.159Z" fill="#407BFF"/>
<path opacity="0.3" d="M434.317 893.159L419.114 990.209C418.756 992.436 420.496 994.458 422.749 994.458H445.859C448.112 994.458 449.852 992.436 449.494 990.209L434.317 893.159Z" fill="black"/>
<path d="M509.254 893.159L494.052 990.209C493.693 992.436 495.434 994.458 497.686 994.458H520.797C523.049 994.458 524.79 992.436 524.431 990.209L509.254 893.159Z" fill="#407BFF"/>
<path opacity="0.3" d="M509.254 893.159L494.052 990.209C493.693 992.436 495.434 994.458 497.686 994.458H520.797C523.049 994.458 524.79 992.436 524.431 990.209L509.254 893.159Z" fill="black"/>
<path d="M455.712 853.08L434.521 988.521C434.034 991.643 436.44 994.458 439.614 994.458H471.861C475.009 994.458 477.441 991.643 476.955 988.521L455.712 853.08Z" fill="#407BFF"/>
<path opacity="0.3" d="M455.712 853.08L434.521 988.521C434.034 991.643 436.44 994.458 439.614 994.458H471.861C475.009 994.458 477.441 991.643 476.955 988.521L455.712 853.08Z" fill="black"/>
<path d="M474.806 868.333L455.892 989.16C455.457 991.949 457.607 994.457 460.422 994.457H489.189C492.004 994.457 494.154 991.949 493.719 989.16L474.806 868.333Z" fill="#407BFF"/>
<path opacity="0.3" d="M474.806 868.333L455.892 989.16C455.457 991.949 457.607 994.457 460.422 994.457H489.189C492.004 994.457 494.154 991.949 493.719 989.16L474.806 868.333Z" fill="black"/>
<path d="M542.935 896.154L558.854 990.108C559.238 992.386 557.498 994.459 555.194 994.459H530.701C528.398 994.459 526.658 992.386 527.042 990.108L542.935 896.154Z" fill="#407BFF"/>
<path opacity="0.3" d="M542.935 896.154L558.854 990.108C559.238 992.386 557.498 994.459 555.194 994.459H530.701C528.398 994.459 526.658 992.386 527.042 990.108L542.935 896.154Z" fill="black"/>
<path d="M526.324 905.571L540.708 990.516C541.066 992.563 539.479 994.432 537.381 994.432H515.243C513.169 994.432 511.583 992.563 511.915 990.516L526.324 905.571Z" fill="#407BFF"/>
<path opacity="0.3" d="M526.324 905.571L540.708 990.516C541.066 992.563 539.479 994.432 537.381 994.432H515.243C513.169 994.432 511.583 992.563 511.915 990.516L526.324 905.571Z" fill="black"/>
<path d="M559.033 883.792L576.949 989.57C577.384 992.129 575.413 994.458 572.828 994.458H545.239C542.654 994.458 540.683 992.129 541.118 989.57L559.033 883.792Z" fill="#407BFF"/>
<path opacity="0.3" d="M559.033 883.792L576.949 989.57C577.384 992.129 575.413 994.458 572.828 994.458H545.239C542.654 994.458 540.683 992.129 541.118 989.57L559.033 883.792Z" fill="black"/>
<path opacity="0.1" d="M374.568 326.201L1682 580V25L374.568 278.799C363.22 280.98 355 290.94 355 302.5C355 314.059 363.22 324.02 374.568 326.201Z" fill="url(#paint5_linear_613_137)"/>
<path opacity="0.1" d="M270.432 326.201L-1037 580V25L270.432 278.799C281.78 280.98 290 290.94 290 302.5C290 314.059 281.78 324.02 270.432 326.201Z" fill="url(#paint6_linear_613_137)"/>
<rect y="729" width="1920" height="251" fill="url(#paint7_linear_613_137)"/>
</g>
<defs>
<linearGradient id="paint0_linear_613_137" x1="104.51" y1="271.949" x2="104.51" y2="217" gradientUnits="userSpaceOnUse">
<stop stop-color="#F5F5F5" stop-opacity="0"/>
<stop offset="1" stop-color="#F5F5F5"/>
</linearGradient>
<linearGradient id="paint1_linear_613_137" x1="539.387" y1="198.272" x2="539.387" y2="124" gradientUnits="userSpaceOnUse">
<stop stop-color="#F5F5F5" stop-opacity="0"/>
<stop offset="1" stop-color="#F5F5F5"/>
</linearGradient>
<linearGradient id="paint2_linear_613_137" x1="689.573" y1="569.019" x2="689.573" y2="534.34" gradientUnits="userSpaceOnUse">
<stop stop-color="#F5F5F5" stop-opacity="0"/>
<stop offset="1" stop-color="#F5F5F5"/>
</linearGradient>
<linearGradient id="paint3_linear_613_137" x1="55" y1="566" x2="55" y2="521" gradientUnits="userSpaceOnUse">
<stop stop-color="#F5F5F5" stop-opacity="0"/>
<stop offset="1" stop-color="#F5F5F5"/>
</linearGradient>
<linearGradient id="paint4_linear_613_137" x1="451.505" y1="447.099" x2="451.505" y2="390" gradientUnits="userSpaceOnUse">
<stop stop-color="#F5F5F5" stop-opacity="0"/>
<stop offset="1" stop-color="#F5F5F5"/>
</linearGradient>
<linearGradient id="paint5_linear_613_137" x1="374" y1="302.5" x2="1682" y2="302.5" gradientUnits="userSpaceOnUse">
<stop stop-color="#E3F2FF"/>
<stop offset="1" stop-color="#E3F2FF" stop-opacity="0"/>
</linearGradient>
<linearGradient id="paint6_linear_613_137" x1="271" y1="302.5" x2="-1037" y2="302.5" gradientUnits="userSpaceOnUse">
<stop stop-color="#E3F2FF"/>
<stop offset="1" stop-color="#E3F2FF" stop-opacity="0"/>
</linearGradient>
<linearGradient id="paint7_linear_613_137" x1="960" y1="729" x2="960" y2="980" gradientUnits="userSpaceOnUse">
<stop stop-color="#0053FF" stop-opacity="0"/>
<stop offset="1" stop-color="#0053FF"/>
</linearGradient>
<clipPath id="clip0_613_137">
<rect width="1920" height="980" fill="white"/>
</clipPath>
</defs>
</svg>
