<svg width="25" height="25" viewBox="0 0 25 25" fill="none" xmlns="http://www.w3.org/2000/svg">
<path d="M9.9968 3.02531C7.49833 2.91953 5.56807 3.20735 5.56807 3.20735C4.34922 3.2945 2.01341 3.97782 2.01343 7.96851C2.01345 11.9253 1.98759 16.8033 2.01343 18.7479C2.01343 19.936 2.74905 22.7073 5.29521 22.8558C8.39005 23.0364 13.9647 23.0748 16.5224 22.8558C17.2071 22.8172 19.4866 22.2797 19.7751 19.7996C20.074 17.2303 20.0145 15.4447 20.0145 15.0197" stroke="white" stroke-width="1.83077" stroke-linecap="round" stroke-linejoin="round"/>
<path d="M19.9101 6.42235C19.9101 7.2079 19.2733 7.84471 18.4878 7.84471C17.7022 7.84471 17.0654 7.2079 17.0654 6.42235C17.0654 5.63681 17.7022 5 18.4878 5C19.2733 5 19.9101 5.63681 19.9101 6.42235Z" stroke="white" stroke-width="1.83" stroke-linecap="round" stroke-linejoin="round"/>
<path d="M23.0624 7.48601C23.3273 7.41459 23.4598 7.37885 23.5121 7.31053C23.5644 7.24225 23.5644 7.13235 23.5644 6.9126V5.931C23.5644 5.71124 23.5644 5.60134 23.5121 5.53307C23.4598 5.46474 23.3273 5.429 23.0624 5.35757C22.0723 5.09056 21.4527 4.05546 21.7082 3.07186C21.7784 2.80136 21.8136 2.66611 21.78 2.58678C21.7465 2.50746 21.6502 2.45279 21.4576 2.34346L20.5821 1.84638C20.3932 1.73909 20.2987 1.68545 20.2139 1.69687C20.1291 1.7083 20.0335 1.80374 19.8421 1.9946C19.1014 2.73358 17.8757 2.73355 17.135 1.99456C16.9437 1.80369 16.848 1.70825 16.7632 1.69682C16.6784 1.6854 16.5839 1.73904 16.395 1.84633L15.5195 2.34342C15.3269 2.45274 15.2306 2.5074 15.1971 2.58671C15.1635 2.66603 15.1987 2.8013 15.2689 3.07183C15.5243 4.05546 14.9042 5.09058 13.9139 5.35758C13.649 5.429 13.5165 5.46474 13.4642 5.53301C13.4119 5.60134 13.4119 5.71124 13.4119 5.931V6.9126C13.4119 7.13235 13.4119 7.24225 13.4642 7.31053C13.5165 7.37885 13.649 7.41459 13.9139 7.48601C14.904 7.75303 15.5236 8.78813 15.2681 9.77171C15.1979 10.0422 15.1627 10.1775 15.1963 10.2568C15.2298 10.3361 15.3261 10.3908 15.5187 10.5001L16.3942 10.9972C16.5831 11.1045 16.6776 11.1581 16.7624 11.1467C16.8472 11.1353 16.9429 11.0398 17.1342 10.849C17.8753 10.1094 19.1018 10.1093 19.843 10.8489C20.0342 11.0398 20.1299 11.1353 20.2147 11.1467C20.2995 11.1581 20.394 11.1044 20.5829 10.9972L21.4584 10.5001C21.651 10.3908 21.7473 10.3361 21.7808 10.2568C21.8144 10.1774 21.7793 10.0422 21.709 9.77166C21.4533 8.78813 22.0725 7.75308 23.0624 7.48601Z" stroke="white" stroke-width="1.83" stroke-linecap="round" stroke-linejoin="round"/>
<path d="M6.98169 14.0205H10.9817" stroke="white" stroke-width="1.83077" stroke-linecap="round"/>
<path d="M6.98169 18.0186H14.9817" stroke="white" stroke-width="1.83077" stroke-linecap="round"/>
</svg>
