<svg width="24" height="24" viewBox="0 0 24 24" fill="none" xmlns="http://www.w3.org/2000/svg">
<path d="M3.36328 9.92773V15.0078C3.36328 17.8814 3.36328 19.3182 4.25602 20.211C5.14875 21.1037 6.58558 21.1037 9.45926 21.1037H14.5392C17.413 21.1037 18.8498 21.1037 19.7425 20.211C20.6352 19.3182 20.6352 17.8814 20.6352 15.0078V9.92773" stroke="white" stroke-width="1.83" stroke-linecap="round" stroke-linejoin="round"/>
<path d="M17.12 7.42894C17.12 8.83174 15.9828 9.96705 14.58 9.96705C13.1773 9.96705 12.0401 8.82985 12.0401 7.42706C12.0401 8.82985 10.9028 9.96705 9.50009 9.96705C8.0973 9.96705 6.9601 8.82985 6.9601 7.42706C6.9601 8.82985 5.76787 9.96705 4.29718 9.96705C3.50555 9.96705 2.79459 9.63756 2.30683 9.11452C1.46825 8.21529 2.00772 6.89269 2.70761 5.89133L3.10135 5.35294C3.9973 4.12784 4.44527 3.5153 5.09566 3.18523C5.74606 2.85517 6.50494 2.85528 8.02269 2.85548L16.0584 2.85656C17.5757 2.85675 18.3344 2.85685 18.9845 3.18691C19.6347 3.51695 20.0825 4.1293 20.9782 5.35402L21.3725 5.89322C22.0724 6.89459 22.6119 8.21718 21.7733 9.11641C21.2855 9.63945 20.5746 9.96895 19.783 9.96895C18.3123 9.96895 17.12 8.83174 17.12 7.42894Z" stroke="white" stroke-width="1.83" stroke-linecap="round" stroke-linejoin="round"/>
<path d="M6.63501 8.88966L7.79325 2.97656" stroke="white" stroke-width="1.83" stroke-linecap="round" stroke-linejoin="round"/>
<path d="M17.4248 8.88966L16.2666 2.97656" stroke="white" stroke-width="1.83" stroke-linecap="round" stroke-linejoin="round"/>
<path d="M11.9993 7.54937V2.85547" stroke="white" stroke-width="1.83" stroke-linecap="round" stroke-linejoin="round"/>
<path d="M9.56104 15.2918C9.56104 14.7531 9.99772 14.3164 10.5364 14.3164H13.5844C14.1231 14.3164 14.5597 14.7531 14.5597 15.2918V21.1439H9.56104V15.2918Z" stroke="white" stroke-width="1.83" stroke-linecap="round" stroke-linejoin="round"/>
</svg>
