<svg width="36" height="36" viewBox="0 0 36 36" fill="none" xmlns="http://www.w3.org/2000/svg">
<path d="M8 0.375H28C32.2112 0.375 35.625 3.78883 35.625 8V28C35.625 32.2112 32.2112 35.625 28 35.625H8C3.78883 35.625 0.375 32.2112 0.375 28V8C0.375 3.78883 3.78883 0.375 8 0.375Z" fill="white"/>
<path d="M8 0.375H28C32.2112 0.375 35.625 3.78883 35.625 8V28C35.625 32.2112 32.2112 35.625 28 35.625H8C3.78883 35.625 0.375 32.2112 0.375 28V8C0.375 3.78883 3.78883 0.375 8 0.375Z" stroke="#616161" stroke-width="0.75"/>
<path d="M13.834 13.832H13.8415M18.8265 13.832H18.834" stroke="#808080" stroke-width="1.66667" stroke-linecap="round" stroke-linejoin="round"/>
<path d="M22.9918 20.082H22.9993M19.666 20.082H19.6735" stroke="#808080" stroke-width="1.66667" stroke-linecap="round" stroke-linejoin="round"/>
<path d="M16.334 21.3346C16.334 23.6358 18.5726 25.5013 21.334 25.5013C22.09 25.5013 22.8067 25.3615 23.4492 25.1112C23.6062 25.0501 23.7767 25.0281 23.9423 25.0587L26.334 25.5013L25.7909 23.8098C25.7116 23.5628 25.7569 23.2957 25.8819 23.0684C26.1722 22.5405 26.334 21.9533 26.334 21.3346C26.334 19.0335 24.0954 17.168 21.334 17.168C18.5726 17.168 16.334 19.0335 16.334 21.3346Z" stroke="#616161" stroke-linecap="round"/>
<path d="M22.8936 17.3738C22.9631 17.0362 22.9993 16.6884 22.9993 16.3333C22.9993 13.1117 20.0146 10.5 16.3327 10.5C12.6508 10.5 9.66602 13.1117 9.66602 16.3333C9.66602 17.2603 9.91312 18.1368 10.3528 18.9151C10.4752 19.1317 10.5158 19.3878 10.443 19.6256L9.66602 22.1667L12.9278 21.5328C13.1009 21.4992 13.2795 21.5228 13.442 21.5912C14.3457 21.9718 15.3672 22.1798 16.4325 22.166" stroke="#616161" stroke-linecap="round"/>
</svg>
