<svg width="30" height="30" viewBox="0 0 30 30" fill="none" xmlns="http://www.w3.org/2000/svg">
<path d="M8 0.5H22C26.1421 0.5 29.5 3.85786 29.5 8V22C29.5 26.1421 26.1421 29.5 22 29.5H8C3.85786 29.5 0.5 26.1421 0.5 22V8C0.5 3.85786 3.85786 0.5 8 0.5Z" fill="white"/>
<path d="M8 0.5H22C26.1421 0.5 29.5 3.85786 29.5 8V22C29.5 26.1421 26.1421 29.5 22 29.5H8C3.85786 29.5 0.5 26.1421 0.5 22V8C0.5 3.85786 3.85786 0.5 8 0.5Z" stroke="#E5E5E5"/>
<path d="M9.9349 10.6673C11.1576 9.2391 12.9738 8.33398 15.0013 8.33398C18.6832 8.33398 21.668 11.3188 21.668 15.0007C21.668 18.6825 18.6832 21.6673 15.0013 21.6673C13.0535 21.6673 11.3008 20.832 10.0819 19.5" stroke="#808080" stroke-linecap="round" stroke-linejoin="round"/>
<path d="M9.66667 8.66602V10.9993H12" stroke="#808080" stroke-linecap="round" stroke-linejoin="round"/>
</svg>
