<svg width="40" height="40" viewBox="0 0 40 40" fill="none" xmlns="http://www.w3.org/2000/svg">
<path d="M3.33325 20.0003C3.33325 12.5364 3.33325 8.80448 5.65199 6.48573C7.97074 4.16699 11.7027 4.16699 19.1666 4.16699C26.6304 4.16699 30.3624 4.16699 32.6813 6.48573C34.9999 8.80448 34.9999 12.5364 34.9999 20.0003C34.9999 27.4642 34.9999 31.1962 32.6813 33.515C30.3624 35.8337 26.6304 35.8337 19.1666 35.8337C11.7027 35.8337 7.97074 35.8337 5.65199 33.515C3.33325 31.1962 3.33325 27.4642 3.33325 20.0003Z" stroke="#616161" stroke-width="1.83077" stroke-linecap="round" stroke-linejoin="round"/>
<path d="M20.6063 12.8705L22.0728 15.8277C22.2728 16.2394 22.8061 16.6342 23.2559 16.7098L25.9141 17.1552C27.6139 17.4408 28.0138 18.6842 26.7889 19.9107L24.7224 21.9943C24.3726 22.3472 24.1809 23.0277 24.2893 23.5148L24.8808 26.094C25.3474 28.1357 24.2726 28.9253 22.4811 27.8583L19.9898 26.3713C19.5398 26.1025 18.7981 26.1025 18.3399 26.3713L15.8485 27.8583C14.0653 28.9253 12.9821 28.1272 13.4487 26.094L14.0403 23.5148C14.1487 23.0277 13.957 22.3472 13.6071 21.9943L11.5406 19.9107C10.3241 18.6842 10.7157 17.4408 12.4155 17.1552L15.0736 16.7098C15.5152 16.6342 16.0485 16.2394 16.2484 15.8277L17.7149 12.8705C18.5149 11.2658 19.8148 11.2658 20.6063 12.8705Z" stroke="#0053FF" stroke-width="1.83077" stroke-linecap="round" stroke-linejoin="round"/>
</svg>
