<svg width="40" height="40" viewBox="0 0 40 40" fill="none" xmlns="http://www.w3.org/2000/svg">
<path d="M3.3335 19.9993C3.3335 12.5354 3.3335 8.8035 5.65223 6.48475C7.97098 4.16602 11.7029 4.16602 19.1668 4.16602C26.6307 4.16602 30.3627 4.16602 32.6815 6.48475C35.0002 8.8035 35.0002 12.5354 35.0002 19.9993C35.0002 27.4632 35.0002 31.1952 32.6815 33.514C30.3627 35.8327 26.6307 35.8327 19.1668 35.8327C11.7029 35.8327 7.97098 35.8327 5.65223 33.514C3.3335 31.1952 3.3335 27.4632 3.3335 19.9993Z" stroke="#616161" stroke-width="1.83" stroke-linecap="round" stroke-linejoin="round"/>
<path d="M20.6065 12.8695L22.073 15.8268C22.273 16.2384 22.8063 16.6333 23.2562 16.7089L25.9143 17.1542C27.6142 17.4399 28.014 18.6832 26.7892 19.9097L24.7227 21.9934C24.3728 22.3462 24.1812 23.0267 24.2895 23.5139L24.881 26.093C25.3477 28.1347 24.2728 28.9244 22.4813 27.8574L19.99 26.3704C19.54 26.1015 18.7983 26.1015 18.3402 26.3704L15.8487 27.8574C14.0656 28.9244 12.9824 28.1262 13.449 26.093L14.0406 23.5139C14.1489 23.0267 13.9573 22.3462 13.6073 21.9934L11.5409 19.9097C10.3243 18.6832 10.7159 17.4399 12.4158 17.1542L15.0738 16.7089C15.5154 16.6333 16.0487 16.2384 16.2487 15.8268L17.7152 12.8695C18.5152 11.2649 19.815 11.2649 20.6065 12.8695Z" stroke="#0053FF" stroke-width="1.83" stroke-linecap="round" stroke-linejoin="round"/>
</svg>
