<svg width="24" height="24" viewBox="0 0 24 24" fill="none" xmlns="http://www.w3.org/2000/svg">
<path d="M20.5046 13.098C21.3731 11.853 21.8823 10.3388 21.8823 8.70581C21.8823 4.4608 18.4411 1.01953 14.196 1.01953C9.95102 1.01953 6.50977 4.46079 6.50977 8.70581C6.50977 9.88467 6.77515 11.0015 7.24944 11.9999" stroke="white" stroke-width="1.83" stroke-linecap="round" stroke-linejoin="round"/>
<path d="M14.1961 5.41152C12.9832 5.41152 12 6.14893 12 7.05858C12 7.96823 12.9832 8.70564 14.1961 8.70564C15.409 8.70564 16.3922 9.44305 16.3922 10.3527C16.3922 11.2623 15.409 11.9998 14.1961 11.9998M14.1961 5.41152C15.1523 5.41152 15.9657 5.86984 16.2672 6.50956M14.1961 5.41152V4.31348M14.1961 11.9998C13.2399 11.9998 12.4265 11.5414 12.125 10.9017M14.1961 11.9998V13.0978" stroke="white" stroke-width="1.83" stroke-linecap="round" stroke-linejoin="round"/>
<path d="M2.11768 14.1953H4.74728C5.07027 14.1953 5.38882 14.2681 5.67771 14.4079L7.91988 15.4928C8.20877 15.6325 8.52732 15.7052 8.85031 15.7052H9.99512C11.1024 15.7052 12 16.5739 12 17.6454C12 17.6886 11.9704 17.7267 11.9273 17.7386L9.1373 18.5101C8.63682 18.6484 8.1009 18.6002 7.63533 18.3749L5.23843 17.2153M12 16.9404L17.0431 15.391C17.9371 15.1124 18.9035 15.4427 19.4635 16.2182C19.8685 16.7789 19.7036 17.5819 19.1137 17.9223L10.8613 22.6837C10.3364 22.9865 9.71714 23.0604 9.13982 22.8892L2.11768 20.8054" stroke="white" stroke-width="1.83" stroke-linecap="round" stroke-linejoin="round"/>
</svg>
