<svg width="40" height="40" viewBox="0 0 40 40" fill="none" xmlns="http://www.w3.org/2000/svg">
<path d="M34.1744 21.83C35.6218 19.755 36.4705 17.2314 36.4705 14.5097C36.4705 7.43467 30.7351 1.69922 23.6601 1.69922C16.585 1.69922 10.8496 7.43465 10.8496 14.5097C10.8496 16.4744 11.2919 18.3358 12.0824 19.9999" stroke="#0053FE" stroke-width="2.01026" stroke-linecap="round" stroke-linejoin="round"/>
<path d="M23.6601 9.01854C21.6386 9.01854 20 10.2476 20 11.7636C20 13.2797 21.6386 14.5087 23.6601 14.5087C25.6816 14.5087 27.3203 15.7378 27.3203 17.2538C27.3203 18.7699 25.6816 19.9989 23.6601 19.9989M23.6601 9.01854C25.2538 9.01854 26.6095 9.78241 27.112 10.8486M23.6601 9.01854V7.18848M23.6601 19.9989C22.0665 19.9989 20.7108 19.2351 20.2083 18.1689M23.6601 19.9989V21.829" stroke="#0053FE" stroke-width="2.01026" stroke-linecap="round" stroke-linejoin="round"/>
<path d="M3.5293 23.6592H7.91198C8.45029 23.6592 8.98121 23.7805 9.46268 24.0135L13.1996 25.8216C13.6811 26.0546 14.212 26.1757 14.7504 26.1757H16.6584C18.5038 26.1757 19.9999 27.6235 19.9999 29.4092C19.9999 29.4814 19.9505 29.5449 19.8787 29.5646L15.2287 30.8504C14.3945 31.081 13.5013 31.0007 12.7254 30.6251L8.73055 28.6924M19.9999 28.2343L28.405 25.6519C29.8951 25.1877 31.5057 25.7381 32.439 27.0307C33.114 27.9651 32.8391 29.3035 31.856 29.8708L18.1019 37.8065C17.2272 38.3112 16.1951 38.4344 15.2329 38.1489L3.5293 34.676" stroke="#616161" stroke-width="2.01026" stroke-linecap="round" stroke-linejoin="round"/>
</svg>
