<svg width="24" height="24" viewBox="0 0 24 24" fill="none" xmlns="http://www.w3.org/2000/svg">
<path d="M9.99644 2.02043C7.49797 1.91465 5.56771 2.20247 5.56771 2.20247C4.34886 2.28962 2.01305 2.97294 2.01307 6.96363C2.01309 10.9204 1.98723 15.7984 2.01307 17.743C2.01307 18.9311 2.74869 21.7024 5.29485 21.8509C8.38969 22.0315 13.9643 22.0699 16.522 21.8509C17.2067 21.8123 19.4862 21.2748 19.7747 18.7947C20.0736 16.2254 20.0141 14.4398 20.0141 14.0148" stroke="#616161" stroke-width="1.29231" stroke-linecap="round" stroke-linejoin="round"/>
<path d="M21.6809 2.14217C20.517 0.888669 11.7616 3.95932 11.7688 5.08042C11.777 6.35173 15.188 6.74282 16.1335 7.0081C16.702 7.16757 16.8543 7.3311 16.9854 7.92729C17.5791 10.6274 17.8772 11.9703 18.5566 12.0003C19.6395 12.0482 22.8169 3.36548 21.6809 2.14217Z" stroke="#0053FE" stroke-width="1.29231" stroke-linecap="round" stroke-linejoin="round"/>
<path d="M16.5793 7.18588L18.4498 5.31543" stroke="#0053FE" stroke-width="1.29231" stroke-linecap="round" stroke-linejoin="round"/>
<path d="M6.98083 13.0166H10.9808" stroke="#616161" stroke-width="1.29231" stroke-linecap="round"/>
<path d="M6.98083 17.0195H14.9808" stroke="#616161" stroke-width="1.29231" stroke-linecap="round"/>
</svg>
