<svg width="80" height="80" viewBox="0 0 80 80" fill="none" xmlns="http://www.w3.org/2000/svg">
<rect width="80" height="80" rx="40" fill="#0053FF"/>
<path d="M32.5 40.0026H42.5M32.5 33.3359H37.5" stroke="white" stroke-width="2" stroke-linecap="round" stroke-linejoin="round"/>
<path d="M34.166 53.3359C35.9166 54.7854 38.0235 55.7089 40.4385 55.8673C42.3413 55.9921 44.3278 55.9919 46.2268 55.8673C46.8807 55.8244 47.5935 55.6704 48.2074 55.4209C48.8902 55.1434 49.2318 55.0046 49.4055 55.0256C49.579 55.0466 49.8308 55.2299 50.3345 55.5964C51.2225 56.2426 52.3412 56.7068 54.0002 56.6669C54.839 56.6468 55.2585 56.6366 55.4462 56.3208C55.634 56.0048 55.4002 55.5674 54.9324 54.6928C54.2837 53.4796 53.8727 52.0908 54.4955 50.9779C55.5682 49.3884 56.4792 47.5061 56.6124 45.4731C56.6839 44.3808 56.6839 43.2494 56.6124 42.1571C56.5237 40.8024 56.1948 39.5148 55.668 38.3359" stroke="white" stroke-width="2" stroke-linecap="round" stroke-linejoin="round"/>
<path d="M40.5757 49.1473C46.5017 48.7569 51.222 44.0141 51.6103 38.0599C51.6863 36.8948 51.6863 35.6881 51.6103 34.5229C51.222 28.5688 46.5017 23.826 40.5757 23.4357C38.554 23.3026 36.4432 23.3028 34.4256 23.4357C28.4997 23.826 23.7794 28.5688 23.391 34.5229C23.315 35.6881 23.315 36.8948 23.391 38.0599C23.5325 40.2286 24.5005 42.2364 25.6402 43.9319C26.3019 45.1188 25.8652 46.6003 25.176 47.8943C24.679 48.8273 24.4305 49.2938 24.63 49.6308C24.8295 49.9678 25.2752 49.9786 26.1665 50.0001C27.9292 50.0426 29.1178 49.5474 30.0613 48.8583C30.5964 48.4673 30.864 48.2718 31.0484 48.2494C31.2328 48.2269 31.5957 48.3749 32.3213 48.6711C32.9736 48.9373 33.7309 49.1014 34.4256 49.1473C36.4432 49.2801 38.554 49.2803 40.5757 49.1473Z" stroke="white" stroke-width="2" stroke-linecap="round" stroke-linejoin="round"/>
</svg>
