<svg width="22" height="17" viewBox="0 0 22 17" fill="none" xmlns="http://www.w3.org/2000/svg">
<path d="M14.5 7.5C14.5 5.567 12.933 4 11 4C9.067 4 7.5 5.567 7.5 7.5C7.5 9.433 9.067 11 11 11C12.933 11 14.5 9.433 14.5 7.5Z" stroke="#141B34" stroke-width="1.5" stroke-linecap="round" stroke-linejoin="round"/>
<path d="M14.483 7.8499C14.805 7.9475 15.1465 8 15.5003 8C17.4333 8 19.0003 6.433 19.0003 4.5C19.0003 2.567 17.4333 1 15.5003 1C13.6854 1 12.1931 2.3814 12.0176 4.15013" stroke="#141B34" stroke-width="1.5" stroke-linecap="round" stroke-linejoin="round"/>
<path d="M9.9827 4.15013C9.8072 2.3814 8.31492 1 6.5 1C4.567 1 3 2.567 3 4.5C3 6.433 4.567 8 6.5 8C6.85381 8 7.19535 7.9475 7.51727 7.8499" stroke="#141B34" stroke-width="1.5" stroke-linecap="round" stroke-linejoin="round"/>
<path d="M21 13C21 10.2386 18.5376 8 15.5 8" stroke="#141B34" stroke-width="1.5" stroke-linecap="round" stroke-linejoin="round"/>
<path d="M16.5 16C16.5 13.2386 14.0376 11 11 11C7.96243 11 5.5 13.2386 5.5 16" stroke="#141B34" stroke-width="1.5" stroke-linecap="round" stroke-linejoin="round"/>
<path d="M6.5 8C3.46243 8 1 10.2386 1 13" stroke="#141B34" stroke-width="1.5" stroke-linecap="round" stroke-linejoin="round"/>
</svg>
