<svg width="41" height="40" viewBox="0 0 41 40" fill="none" xmlns="http://www.w3.org/2000/svg">
<path d="M3.43237 16.9922C2.1978 12.4556 4.93208 7.79255 9.53955 6.57699M3.43237 16.9922L1 17.6439M3.43237 16.9922C3.73937 18.1203 4.26288 19.1343 4.9471 20.0026M9.53955 6.57699L8.5 3.33594M9.53955 6.57699C12.5234 5.78979 15.561 6.64146 17.6667 8.5716M4.29422 10.5409L1.83333 9.1201M17.6667 4.72748C17.2868 5.37685 16.095 7.4275 16.095 7.4275" stroke="#0053FE" stroke-width="1.83077" stroke-linecap="round" stroke-linejoin="round"/>
<path d="M30.13 18.3361C30.1423 18.3359 30.1548 18.3359 30.1673 18.3359C34.3095 18.3359 37.6673 21.6938 37.6673 25.8359C37.6673 29.9781 34.3095 33.3359 30.1673 33.3359H12.6673C8.06495 33.3359 4.33398 29.6049 4.33398 25.0026C4.33398 20.6698 7.64062 17.1094 11.868 16.7071M30.13 18.3361C30.1547 18.0616 30.1673 17.7836 30.1673 17.5026C30.1673 12.44 26.0633 8.33594 21.0007 8.33594C16.2061 8.33594 12.2712 12.017 11.868 16.7071M30.13 18.3361C29.9595 20.2268 29.215 21.9519 28.072 23.3359M11.868 16.7071C12.1311 16.6821 12.3977 16.6693 12.6673 16.6693C14.5437 16.6693 16.2752 17.2894 17.6682 18.3359" stroke="#616161" stroke-width="1.83077" stroke-linecap="round" stroke-linejoin="round"/>
</svg>
