<svg width="25" height="24" viewBox="0 0 25 24" fill="none" xmlns="http://www.w3.org/2000/svg">
<path d="M2.45942 10.1957C1.71868 7.47374 3.35925 4.67592 6.12373 3.94658M2.45942 10.1957L1 10.5867M2.45942 10.1957C2.64362 10.8725 2.95773 11.481 3.36826 12.002M6.12373 3.94658L5.5 2.00195M6.12373 3.94658C7.91402 3.47426 9.73659 3.98527 11 5.14335M2.97653 6.32492L1.5 5.47245M11 2.83688C10.7721 3.2265 10.057 4.45689 10.057 4.45689" stroke="white" stroke-width="1.83077" stroke-linecap="round" stroke-linejoin="round"/>
<path d="M18.4781 11.0021C18.4855 11.002 18.493 11.002 18.5005 11.002C20.9858 11.002 23.0005 13.0167 23.0005 15.502C23.0005 17.9873 20.9858 20.002 18.5005 20.002H8.00049C5.23907 20.002 3.00049 17.7634 3.00049 15.002C3.00049 12.4023 4.98447 10.2661 7.52091 10.0247M18.4781 11.0021C18.4929 10.8374 18.5005 10.6706 18.5005 10.502C18.5005 7.46438 16.0381 5.00195 13.0005 5.00195C10.1237 5.00195 7.76282 7.21057 7.52091 10.0247M18.4781 11.0021C18.3758 12.1365 17.9291 13.1716 17.2433 14.002M7.52091 10.0247C7.67875 10.0097 7.83872 10.002 8.00049 10.002C9.12631 10.002 10.1652 10.3741 11.001 11.002" stroke="white" stroke-width="1.83077" stroke-linecap="round" stroke-linejoin="round"/>
</svg>
