<svg width="20" height="20" viewBox="0 0 20 20" fill="none" xmlns="http://www.w3.org/2000/svg">
<path d="M5.83301 5.83337H5.84048M10.8255 5.83337H10.833" stroke="#808080" stroke-width="1.66667" stroke-linecap="round" stroke-linejoin="round"/>
<path d="M14.9928 12.0834H15.0003M11.667 12.0834H11.6745" stroke="#808080" stroke-width="1.66667" stroke-linecap="round" stroke-linejoin="round"/>
<path d="M8.33301 13.3333C8.33301 15.6345 10.5716 17.5 13.333 17.5C14.089 17.5 14.8058 17.3601 15.4482 17.1099C15.6052 17.0487 15.7757 17.0267 15.9413 17.0574L18.333 17.5L17.7899 15.8085C17.7106 15.5615 17.7559 15.2944 17.8809 15.067C18.1712 14.5391 18.333 13.952 18.333 13.3333C18.333 11.0321 16.0944 9.16663 13.333 9.16663C10.5716 9.16663 8.33301 11.0321 8.33301 13.3333Z" stroke="#808080" stroke-width="1.25" stroke-linejoin="round"/>
<path d="M14.8946 9.37375C14.9641 9.03617 15.0003 8.68842 15.0003 8.33333C15.0003 5.11168 12.0156 2.5 8.33366 2.5C4.65176 2.5 1.66699 5.11168 1.66699 8.33333C1.66699 9.26033 1.9141 10.1368 2.35383 10.9151C2.47618 11.1317 2.51675 11.3878 2.44402 11.6256L1.66699 14.1667L4.92878 13.5328C5.10185 13.4992 5.2805 13.5228 5.44298 13.5912C6.34667 13.9718 7.36814 14.1798 8.43349 14.166" stroke="#808080" stroke-width="1.25" stroke-linejoin="round"/>
</svg>
