<svg width="24" height="24" viewBox="0 0 24 24" fill="none" xmlns="http://www.w3.org/2000/svg">
<path d="M10.9395 8.85352V12.6919L13.0506 14.1313" stroke="white" stroke-width="1.93167" stroke-linecap="round" stroke-linejoin="round"/>
<path d="M11.0184 21.5195C5.7281 21.5195 1.43945 17.2662 1.43945 12.0195C1.43945 6.77282 5.7281 2.51953 11.0184 2.51953C15.2432 2.51953 18.8292 5.23203 20.1023 8.9968C20.2442 9.41632 20.3573 9.84891 20.4395 10.2923" stroke="white" stroke-width="1.93167" stroke-linecap="round" stroke-linejoin="round"/>
<path d="M22.2204 15.1167L21.5632 14.4595C21.1251 14.0213 20.4147 14.0213 19.9765 14.4595L16.4417 17.9943C15.9719 18.4641 15.6516 19.0626 15.5213 19.7142L15.1602 21.5197L16.9657 21.1586C17.6173 21.0283 18.2158 20.708 18.6856 20.2382L22.2204 16.7034C22.6586 16.2652 22.6586 15.5548 22.2204 15.1167Z" stroke="white" stroke-width="1.83077" stroke-linecap="round" stroke-linejoin="round"/>
</svg>
