<svg width="26" height="26" viewBox="0 0 26 26" fill="none" xmlns="http://www.w3.org/2000/svg">
<g clip-path="url(#clip0_4792_4941)">
<path d="M13 2.34239C16.4711 2.34239 16.8822 2.3556 18.2531 2.41814C19.5206 2.47599 20.2089 2.68777 20.6671 2.86575C21.2737 3.10158 21.7069 3.38334 22.1618 3.83822C22.6166 4.29311 22.8984 4.72622 23.1342 5.33297C23.3123 5.79111 23.524 6.47945 23.5819 7.74688C23.6444 9.11773 23.6576 9.52886 23.6576 13C23.6576 16.4712 23.6444 16.8823 23.5819 18.2531C23.524 19.5206 23.3123 20.2089 23.1342 20.6671C22.8984 21.2738 22.6166 21.707 22.1618 22.1619C21.7069 22.6168 21.2737 22.8984 20.6671 23.1343C20.2089 23.3123 19.5206 23.524 18.2531 23.5819C16.8825 23.6444 16.4713 23.6576 13 23.6576C9.5286 23.6576 9.11747 23.6444 7.74688 23.5819C6.4794 23.524 5.79106 23.3123 5.33297 23.1343C4.72616 22.8984 4.29306 22.6168 3.83817 22.1619C3.38328 21.707 3.10153 21.2738 2.86575 20.6671C2.68772 20.2089 2.47594 19.5206 2.4181 18.2532C2.35555 16.8823 2.34234 16.4712 2.34234 13C2.34234 9.52886 2.35555 9.11773 2.4181 7.74694C2.47594 6.47945 2.68772 5.79111 2.86575 5.33297C3.10153 4.72622 3.38328 4.29311 3.83817 3.83822C4.29306 3.38334 4.72616 3.10158 5.33297 2.86575C5.79106 2.68777 6.47939 2.47599 7.74683 2.41814C9.11768 2.3556 9.52881 2.34239 13 2.34239ZM13 0C9.46936 0 9.0267 0.0149651 7.64012 0.0782311C6.25637 0.141393 5.3114 0.361122 4.48446 0.682509C3.62959 1.01473 2.90461 1.45925 2.1819 2.18195C1.4592 2.90467 1.01468 3.62964 0.682458 4.4845C0.361071 5.31145 0.141343 6.25642 0.0781794 7.64017C0.0149134 9.0267 0 9.46942 0 13C0 16.5307 0.0149134 16.9733 0.0781794 18.3599C0.141343 19.7436 0.361071 20.6886 0.682458 21.5155C1.01468 22.3704 1.4592 23.0954 2.1819 23.8181C2.90461 24.5409 3.62959 24.9854 4.48446 25.3175C5.3114 25.6389 6.25637 25.8586 7.64012 25.9218C9.0267 25.9851 9.46936 26 13 26C16.5306 26 16.9733 25.9851 18.3598 25.9218C19.7435 25.8586 20.6885 25.6389 21.5155 25.3175C22.3704 24.9854 23.0954 24.5409 23.8181 23.8181C24.5408 23.0954 24.9852 22.3704 25.3175 21.5155C25.6389 20.6886 25.8586 19.7436 25.9218 18.3599C25.9851 16.9733 26 16.5307 26 13C26 9.46942 25.9851 9.0267 25.9218 7.64017C25.8586 6.25642 25.6389 5.31145 25.3175 4.4845C24.9852 3.62964 24.5408 2.90467 23.8181 2.18195C23.0954 1.45925 22.3704 1.01473 21.5155 0.682509C20.6885 0.361122 19.7435 0.141393 18.3598 0.0782311C16.9733 0.0149651 16.5306 0 13 0ZM13 6.32433C9.3131 6.32433 6.32427 9.31316 6.32427 13C6.32427 16.6869 9.3131 19.6757 13 19.6757C16.6868 19.6757 19.6757 16.6869 19.6757 13C19.6757 9.31316 16.6868 6.32433 13 6.32433ZM13 17.3333C10.6068 17.3333 8.66661 15.3932 8.66661 13C8.66661 10.6068 10.6068 8.66667 13 8.66667C15.3932 8.66667 17.3333 10.6068 17.3333 13C17.3333 15.3932 15.3932 17.3333 13 17.3333ZM21.4994 6.06058C21.4994 6.92215 20.801 7.62061 19.9394 7.62061C19.0778 7.62061 18.3794 6.92215 18.3794 6.06058C18.3794 5.19901 19.0778 4.50061 19.9394 4.50061C20.801 4.50061 21.4994 5.19901 21.4994 6.06058Z" fill="white"/>
</g>
<defs>
<clipPath id="clip0_4792_4941">
<rect width="26" height="26" fill="white"/>
</clipPath>
</defs>
</svg>
