<svg width="26" height="25" viewBox="0 0 26 25" fill="none" xmlns="http://www.w3.org/2000/svg">
<path d="M5.45645 2.76451C5.45609 3.49734 5.16831 4.20001 4.65641 4.71794C4.14451 5.23587 3.45043 5.52663 2.72686 5.52626C2.00329 5.5259 1.3095 5.23443 0.798115 4.71598C0.286729 4.19754 -0.000361444 3.49458 3.41521e-07 2.76175C0.000362127 2.02892 0.288146 1.32625 0.800044 0.808326C1.31194 0.290397 2.00602 -0.000366068 2.72959 3.45891e-07C3.45316 0.00036676 4.14695 0.291833 4.65834 0.81028C5.16973 1.32873 5.45682 2.03169 5.45645 2.76451ZM5.5383 7.57236L0.0818471 7.57236L0.0818471 24.8696L5.5383 24.8696L5.5383 7.57236ZM14.1595 7.57236L8.73033 7.57236L8.73033 24.8696L14.1049 24.8696L14.1049 15.7927C14.1049 10.7361 20.6118 10.2664 20.6118 15.7927L20.6118 24.8696L26 24.8696L26 13.9137C26 5.38949 16.3694 5.70725 14.1049 9.89339L14.1595 7.57236Z" fill="white"/>
</svg>
