<svg width="40" height="40" viewBox="0 0 40 40" fill="none" xmlns="http://www.w3.org/2000/svg">
<path d="M8.88953 5.00002C12.9903 4.99428 16.9482 6.47848 20.0007 9.16667V35C16.9482 32.3118 12.9903 30.8277 8.88953 30.8333C6.28618 30.8333 4.98452 30.8333 4.40942 30.4653C4.06415 30.2443 3.92308 30.1032 3.70208 29.7578C3.33398 29.1828 3.33398 28.1568 3.33398 26.1048V10.672C3.33398 8.29238 3.33398 7.10257 4.24855 6.1381C5.16312 5.17363 6.09937 5.12387 7.97185 5.02433C8.27565 5.00818 8.58162 5.00002 8.88953 5.00002Z" stroke="#616161" stroke-width="1.83077" stroke-linecap="round" stroke-linejoin="round"/>
<path d="M20 35V9.16667C23.0525 6.47848 27.0103 4.99428 31.1112 5.00002C31.419 5.00002 31.725 5.00818 32.0288 5.02433C33.9013 5.12387 34.8375 5.17363 35.7522 6.1381C36.6667 7.10257 36.6667 8.29238 36.6667 10.672V19.1667" stroke="#616161" stroke-width="1.83077" stroke-linecap="round" stroke-linejoin="round"/>
<path d="M36.1478 24.8895L35.1102 23.8519C34.4183 23.16 33.2967 23.16 32.6048 23.8519L27.0235 29.4332C26.2817 30.1751 25.776 31.12 25.5702 32.1489L25 34.9997L27.8508 34.4295C28.8797 34.2237 29.8247 33.718 30.5665 32.9762L36.1478 27.3949C36.8397 26.703 36.8397 25.5814 36.1478 24.8895Z" stroke="#0053FF" stroke-width="1.83077" stroke-linecap="round" stroke-linejoin="round"/>
</svg>
