<svg width="40" height="40" viewBox="0 0 40 40" fill="none" xmlns="http://www.w3.org/2000/svg">
<path d="M12.5 20.0026H22.5M12.5 13.3359H17.5" stroke="#0053FE" stroke-width="1.83077" stroke-linecap="round" stroke-linejoin="round"/>
<path d="M14.166 33.3359C15.9166 34.7854 18.0235 35.7089 20.4385 35.8673C22.3413 35.9921 24.3278 35.9919 26.2268 35.8673C26.8807 35.8244 27.5935 35.6704 28.2074 35.4209C28.8902 35.1434 29.2318 35.0046 29.4055 35.0256C29.579 35.0466 29.8308 35.2299 30.3345 35.5964C31.2225 36.2426 32.3412 36.7068 34.0002 36.6669C34.839 36.6468 35.2585 36.6366 35.4462 36.3208C35.634 36.0048 35.4002 35.5674 34.9324 34.6928C34.2837 33.4796 33.8727 32.0908 34.4955 30.9779C35.5682 29.3884 36.4792 27.5061 36.6124 25.4731C36.6839 24.3808 36.6839 23.2494 36.6124 22.1571C36.5237 20.8024 36.1948 19.5148 35.668 18.3359" stroke="#616161" stroke-width="1.83077" stroke-linecap="round" stroke-linejoin="round"/>
<path d="M20.5757 29.1473C26.5017 28.7569 31.222 24.0141 31.6103 18.0599C31.6863 16.8948 31.6863 15.6881 31.6103 14.5229C31.222 8.56875 26.5017 3.82595 20.5757 3.43569C18.554 3.30255 16.4432 3.30282 14.4256 3.43569C8.4997 3.82595 3.7794 8.56875 3.39098 14.5229C3.31498 15.6881 3.31498 16.8948 3.39098 18.0599C3.53245 20.2286 4.50052 22.2364 5.64018 23.9319C6.30192 25.1188 5.8652 26.6003 5.17595 27.8943C4.67898 28.8273 4.4305 29.2938 4.63002 29.6308C4.82952 29.9678 5.27518 29.9786 6.1665 30.0001C7.92918 30.0426 9.11778 29.5474 10.0613 28.8583C10.5964 28.4673 10.864 28.2718 11.0484 28.2494C11.2328 28.2269 11.5957 28.3749 12.3213 28.6711C12.9736 28.9373 13.7309 29.1014 14.4256 29.1473C16.4432 29.2801 18.554 29.2803 20.5757 29.1473Z" stroke="#0053FE" stroke-width="1.83077" stroke-linecap="round" stroke-linejoin="round"/>
</svg>
