<svg width="40" height="40" viewBox="0 0 40 40" fill="none" xmlns="http://www.w3.org/2000/svg">
<path d="M34.9045 28.0583C33.8107 21.477 30.4053 16.5762 27.445 13.6977C26.5835 12.86 26.1528 12.4412 25.2013 12.0536C24.2498 11.666 23.432 11.666 21.7963 11.666H18.2037C16.568 11.666 15.7502 11.666 14.7987 12.0536C13.8472 12.4412 13.4165 12.86 12.5551 13.6977C9.5947 16.5762 6.18935 21.477 5.09545 28.0583C4.28155 32.955 8.79878 36.666 13.8472 36.666H26.1528C31.2012 36.666 35.7185 32.955 34.9045 28.0583Z" stroke="#616161" stroke-width="1.83077" stroke-linecap="round" stroke-linejoin="round"/>
<path d="M12.0937 7.40543C11.7499 6.90495 11.2515 6.22563 12.281 6.07073C13.3392 5.9115 14.438 6.63588 15.5136 6.621C16.4866 6.60753 16.9823 6.17597 17.5142 5.55978C18.0742 4.91093 18.9413 3.33398 19.9993 3.33398C21.0573 3.33398 21.9245 4.91093 22.4845 5.55978C23.0163 6.17597 23.512 6.60753 24.485 6.621C25.5607 6.63588 26.6595 5.9115 27.7177 6.07073C28.7472 6.22563 28.2488 6.90495 27.905 7.40543L26.3502 9.66838C25.6852 10.6364 25.3527 11.1204 24.6567 11.3939C23.9608 11.6673 23.0615 11.6673 21.263 11.6673H18.7357C16.9372 11.6673 16.0378 11.6673 15.3419 11.3939C14.646 11.1204 14.3135 10.6364 13.6484 9.66838L12.0937 7.40543Z" stroke="#616161" stroke-width="1.83077" stroke-linecap="round" stroke-linejoin="round"/>
<path d="M20.1111 18.3008C18.3928 18.3008 17 19.5298 17 21.0459C17 22.562 18.3928 23.791 20.1111 23.791C21.8294 23.791 23.2222 25.02 23.2222 26.5361C23.2222 28.0521 21.8294 29.2812 20.1111 29.2812M20.1111 18.3008C21.4657 18.3008 22.618 19.0646 23.0452 20.1308M20.1111 18.3008V16.4707M20.1111 29.2812C18.7565 29.2812 17.6042 28.5173 17.177 27.4511M20.1111 29.2812V31.1112" stroke="#0053FE" stroke-width="2.01026" stroke-linecap="round" stroke-linejoin="round"/>
</svg>
