<svg width="40" height="42" viewBox="0 0 40 42" fill="none" xmlns="http://www.w3.org/2000/svg">
<path d="M31.9234 15.4403C31.5861 15.7448 31.1353 15.915 30.6662 15.915C30.197 15.915 29.7462 15.7448 29.409 15.4403C26.3203 12.6345 22.1812 9.50029 24.1997 4.94974C25.2911 2.48944 27.911 0.915039 30.6662 0.915039C33.4214 0.915039 36.0412 2.48944 37.1326 4.94974C39.1486 9.49444 35.0197 12.6441 31.9234 15.4403Z" stroke="#0053FF" stroke-width="1.83" stroke-linecap="round" stroke-linejoin="round"/>
<path d="M31 6.91504H31.015" stroke="#0053FF" stroke-width="3" stroke-linecap="round" stroke-linejoin="round"/>
<path d="M10.2573 40.4403C9.9201 40.7448 9.4693 40.915 9.00014 40.915C8.53099 40.915 8.08019 40.7448 7.74294 40.4403C4.65423 37.6345 0.515215 34.5003 2.5337 29.9497C3.62508 27.4894 6.24494 25.915 9.00014 25.915C11.7553 25.915 14.3752 27.4894 15.4666 29.9497C17.4826 34.4944 13.3537 37.6441 10.2573 40.4403Z" stroke="#0053FF" stroke-width="1.83" stroke-linecap="round" stroke-linejoin="round"/>
<path d="M20 9.91504H17.9C15.1938 9.91504 13 12.4894 13 15.665C13 18.8408 15.1938 21.415 17.9 21.415H22.1C24.8062 21.415 27 23.9893 27 27.165C27 30.3408 24.8062 32.915 22.1 32.915H20" stroke="#616161" stroke-width="1.83" stroke-linecap="round" stroke-linejoin="round" stroke-dasharray="9 9"/>
<path d="M9 31.915H9.015" stroke="#0053FF" stroke-width="3" stroke-linecap="round" stroke-linejoin="round"/>
</svg>
