<svg width="41" height="40" viewBox="0 0 41 40" fill="none" xmlns="http://www.w3.org/2000/svg">
<path d="M16.6607 3.37487C12.4966 3.19857 9.27947 3.67827 9.27947 3.67827C7.24805 3.82352 3.35504 4.96238 3.35507 11.6135C3.3551 18.2081 3.312 26.3381 3.35507 29.5791C3.35507 31.5593 4.5811 36.1781 8.8247 36.4256C13.9828 36.7266 23.2738 36.7906 27.5367 36.4256C28.6778 36.3613 32.477 35.4655 32.9578 31.332C33.456 27.0498 33.3568 24.0738 33.3568 23.3655" stroke="#616161" stroke-width="2.15385" stroke-linecap="round" stroke-linejoin="round"/>
<path d="M33.1845 9.0366C33.1845 10.3458 32.1232 11.4072 30.8139 11.4072C29.5047 11.4072 28.4434 10.3458 28.4434 9.0366C28.4434 7.72736 29.5047 6.66602 30.8139 6.66602C32.1232 6.66602 33.1845 7.72736 33.1845 9.0366Z" stroke="#0053FE" stroke-width="2.15294" stroke-linecap="round" stroke-linejoin="round"/>
<path d="M38.4377 10.8094C38.8793 10.6903 39.1001 10.6308 39.1872 10.5169C39.2745 10.4031 39.2745 10.2199 39.2745 9.85368V8.21768C39.2745 7.85142 39.2745 7.66825 39.1872 7.55446C39.1 7.44058 38.8793 7.38102 38.4377 7.26196C36.7876 6.81695 35.7548 5.09179 36.1807 3.45245C36.2978 3.00161 36.3564 2.7762 36.3004 2.64399C36.2445 2.51178 36.0841 2.42067 35.7631 2.23845L34.3039 1.40998C33.989 1.23117 33.8316 1.14177 33.6903 1.16081C33.5489 1.17984 33.3895 1.33891 33.0706 1.65702C31.836 2.88866 29.7933 2.88861 28.5587 1.65695C28.2398 1.33882 28.0804 1.17977 27.9391 1.16072C27.7977 1.14169 27.6403 1.23109 27.3253 1.40989L25.8662 2.23838C25.5453 2.42058 25.3848 2.51168 25.3289 2.64387C25.273 2.77606 25.3315 3.00151 25.4486 3.4524C25.8742 5.09178 24.8407 6.81698 23.1903 7.26198C22.7487 7.38102 22.5279 7.44058 22.4407 7.55437C22.3535 7.66825 22.3535 7.85142 22.3535 8.21768V9.85368C22.3535 10.2199 22.3535 10.4031 22.4407 10.5169C22.5279 10.6308 22.7487 10.6903 23.1903 10.8094C24.8404 11.2544 25.8731 12.9796 25.4473 14.6189C25.3302 15.0697 25.2716 15.2951 25.3275 15.4274C25.3834 15.5596 25.5439 15.6507 25.8648 15.8329L27.324 16.6614C27.639 16.8402 27.7964 16.9296 27.9378 16.9106C28.0791 16.8915 28.2385 16.7324 28.5573 16.4143C29.7926 15.1817 31.8367 15.1816 33.072 16.4142C33.3908 16.7324 33.5502 16.8914 33.6916 16.9105C33.8329 16.9295 33.9904 16.8401 34.3053 16.6613L35.7645 15.8328C36.0855 15.6506 36.246 15.5595 36.3018 15.4273C36.3577 15.295 36.2992 15.0696 36.182 14.6188C35.7559 12.9796 36.7879 11.2545 38.4377 10.8094Z" stroke="#0053FE" stroke-width="2.15294" stroke-linecap="round" stroke-linejoin="round"/>
<path d="M11.6367 21.6992H18.3033" stroke="#616161" stroke-width="2.15385" stroke-linecap="round"/>
<path d="M11.6367 28.3633H24.97" stroke="#616161" stroke-width="2.15385" stroke-linecap="round"/>
</svg>
