<svg width="40" height="40" viewBox="0 0 40 40" fill="none" xmlns="http://www.w3.org/2000/svg">
<path d="M5.60547 16.5469V25.0136C5.60547 29.803 5.60547 32.1977 7.09336 33.6856C8.58125 35.1735 10.976 35.1735 15.7654 35.1735H24.232C29.0216 35.1735 31.4163 35.1735 32.9042 33.6856C34.392 32.1977 34.392 29.803 34.392 25.0136V16.5469" stroke="#616161" stroke-width="1.83" stroke-linecap="round" stroke-linejoin="round"/>
<path d="M28.5327 12.3822C28.5327 14.7202 26.6373 16.6124 24.2993 16.6124C21.9614 16.6124 20.066 14.7171 20.066 12.3791C20.066 14.7171 18.1707 16.6124 15.8328 16.6124C13.4948 16.6124 11.5994 14.7171 11.5994 12.3791C11.5994 14.7171 9.61239 16.6124 7.16123 16.6124C5.84184 16.6124 4.65692 16.0632 3.84399 15.1915C2.44635 13.6928 3.34547 11.4885 4.51195 9.81953L5.16819 8.92222C6.66143 6.88039 7.40805 5.85948 8.49203 5.30937C9.57603 4.75927 10.8408 4.75944 13.3704 4.75978L26.7633 4.76158C29.2921 4.7619 30.5565 4.76207 31.6401 5.31216C32.7238 5.86224 33.4701 6.88282 34.9629 8.92401L35.6201 9.82268C36.7866 11.4916 37.6858 13.696 36.2881 15.1947C35.4751 16.0664 34.2903 16.6156 32.9709 16.6156C30.5198 16.6156 28.5327 14.7202 28.5327 12.3822Z" stroke="#0053FF" stroke-width="1.83" stroke-linecap="round" stroke-linejoin="round"/>
<path d="M11.0586 14.8161L12.989 4.96094" stroke="#0053FF" stroke-width="1.83" stroke-linecap="round" stroke-linejoin="round"/>
<path d="M29.041 14.8161L27.1106 4.96094" stroke="#0053FF" stroke-width="1.83" stroke-linecap="round" stroke-linejoin="round"/>
<path d="M19.998 12.5829V4.75977" stroke="#0053FF" stroke-width="1.83" stroke-linecap="round" stroke-linejoin="round"/>
<path d="M15.9355 25.4869C15.9355 24.5891 16.6633 23.8613 17.5611 23.8613H22.6411C23.5389 23.8613 24.2667 24.5891 24.2667 25.4869V35.2405H15.9355V25.4869Z" stroke="#616161" stroke-width="1.83" stroke-linecap="round" stroke-linejoin="round"/>
</svg>
