<svg width="40" height="40" viewBox="0 0 40 40" fill="none" xmlns="http://www.w3.org/2000/svg">
<path d="M18.2324 14.7578V21.1551L21.7509 23.5541" stroke="#616161" stroke-width="1.83" stroke-linecap="round" stroke-linejoin="round"/>
<path d="M18.3653 35.8671C9.54814 35.8671 2.40039 28.7782 2.40039 20.0338C2.40039 11.2893 9.54814 4.20044 18.3653 4.20044C25.4066 4.20044 31.3833 8.72127 33.5052 14.9959C33.7416 15.6951 33.9302 16.4161 34.0671 17.155" stroke="#616161" stroke-width="1.83" stroke-linecap="round" stroke-linejoin="round"/>
<path d="M37.0347 25.195L35.9394 24.0997C35.2091 23.3694 34.0251 23.3694 33.2949 24.0997L27.4035 29.9911C26.6204 30.7741 26.0867 31.7716 25.8694 32.8576L25.2676 35.8668L28.2768 35.265C29.3628 35.0477 30.3603 34.514 31.1433 33.7309L37.0347 27.8395C37.765 27.1093 37.765 25.9253 37.0347 25.195Z" stroke="#0053FF" stroke-width="1.83" stroke-linecap="round" stroke-linejoin="round"/>
</svg>
