<svg width="40" height="40" viewBox="0 0 40 40" fill="none" xmlns="http://www.w3.org/2000/svg">
<path d="M3.33398 19.9993C3.33398 12.5354 3.33398 8.8035 5.65272 6.48475C7.97147 4.16602 11.7034 4.16602 19.1673 4.16602C26.6312 4.16602 30.3632 4.16602 32.682 6.48475C35.0007 8.8035 35.0007 12.5354 35.0007 19.9993C35.0007 27.4632 35.0007 31.1952 32.682 33.514C30.3632 35.8327 26.6312 35.8327 19.1673 35.8327C11.7034 35.8327 7.97147 35.8327 5.65272 33.514C3.33398 31.1952 3.33398 27.4632 3.33398 19.9993Z" stroke="#616161" stroke-width="1.83" stroke-linecap="round" stroke-linejoin="round"/>
<path d="M20.607 12.8695L22.0735 15.8268C22.2735 16.2384 22.8068 16.6333 23.2567 16.7089L25.9148 17.1542C27.6147 17.4399 28.0145 18.6832 26.7897 19.9097L24.7232 21.9934C24.3733 22.3462 24.1817 23.0267 24.29 23.5139L24.8815 26.093C25.3482 28.1347 24.2733 28.9244 22.4818 27.8574L19.9905 26.3704C19.5405 26.1015 18.7988 26.1015 18.3407 26.3704L15.8492 27.8574C14.0661 28.9244 12.9829 28.1262 13.4495 26.093L14.0411 23.5139C14.1494 23.0267 13.9578 22.3462 13.6078 21.9934L11.5414 19.9097C10.3248 18.6832 10.7164 17.4399 12.4163 17.1542L15.0743 16.7089C15.5159 16.6333 16.0492 16.2384 16.2492 15.8268L17.7157 12.8695C18.5157 11.2649 19.8155 11.2649 20.607 12.8695Z" stroke="#0053FF" stroke-width="1.83" stroke-linecap="round" stroke-linejoin="round"/>
</svg>
