<svg width="40" height="40" viewBox="0 0 40 40" fill="none" xmlns="http://www.w3.org/2000/svg">
<path d="M19.9992 7.64673V37.6467M19.9992 37.6467H14.7051M19.9992 37.6467H25.2933" stroke="#616161" stroke-width="1.83" stroke-linecap="round" stroke-linejoin="round"/>
<path d="M5.88281 12.9408H7.73258C9.96221 12.9408 12.1255 12.0073 13.8665 10.2938C17.4526 6.76438 22.5483 6.76438 26.1344 10.2938C27.8755 12.0073 30.0386 12.9408 32.2683 12.9408H34.1181" stroke="#616161" stroke-width="1.83" stroke-linecap="round" stroke-linejoin="round"/>
<path d="M22.6476 4.9996C22.6476 6.46153 21.4625 7.64666 20.0006 7.64666C18.5387 7.64666 17.3535 6.46153 17.3535 4.9996C17.3535 3.53766 18.5387 2.35254 20.0006 2.35254C21.4625 2.35254 22.6476 3.53766 22.6476 4.9996Z" stroke="#616161" stroke-width="1.83" stroke-linecap="round" stroke-linejoin="round"/>
<path d="M12.9407 21.764L8.52895 12.9404L4.11719 21.764" stroke="#0053FE" stroke-width="1.83" stroke-linecap="round" stroke-linejoin="round"/>
<path d="M8.52999 28.8235C10.9207 28.8235 13.0025 27.3522 14.084 25.1792C14.6677 24.0062 14.9595 23.4198 14.4268 22.5923C13.894 21.7646 13.0123 21.7646 11.249 21.7646H5.81102C4.04764 21.7646 3.16595 21.7646 2.63321 22.5923C2.10048 23.4198 2.39231 24.0062 2.97598 25.1792C4.05748 27.3522 6.13931 28.8235 8.52999 28.8235Z" stroke="#0053FE" stroke-width="1.83" stroke-linecap="round" stroke-linejoin="round"/>
<path d="M35.8821 21.764L31.4704 12.9404L27.0586 21.764" stroke="#0053FE" stroke-width="1.83" stroke-linecap="round" stroke-linejoin="round"/>
<path d="M31.4694 28.8235C33.8601 28.8235 35.9419 27.3522 37.0235 25.1792C37.6071 24.0062 37.899 23.4198 37.3662 22.5923C36.8334 21.7646 35.9518 21.7646 34.1883 21.7646H28.7506C26.9871 21.7646 26.1054 21.7646 25.5727 22.5923C25.0399 23.4198 25.3318 24.0062 25.9154 25.1792C26.997 27.3522 29.0788 28.8235 31.4694 28.8235Z" stroke="#0053FE" stroke-width="1.83" stroke-linecap="round" stroke-linejoin="round"/>
</svg>
