<svg width="40" height="40" viewBox="0 0 40 40" fill="none" xmlns="http://www.w3.org/2000/svg">
<path d="M7.03768 36.6577V30.7415C7.03768 28.6225 6.48277 27.521 5.39202 25.6793C4.08448 23.4718 3.33398 20.8955 3.33398 18.144C3.33398 9.96411 9.9668 3.33301 18.1488 3.33301C26.3308 3.33301 32.9637 9.96411 32.9637 18.144C32.9637 19.1102 32.9637 19.5933 33.004 19.8642C33.1003 20.5117 33.4025 21.0687 33.6997 21.6452L36.6673 27.4008L34.335 28.5667C33.659 28.9045 33.3212 29.0735 33.0857 29.3853C32.8502 29.697 32.784 30.049 32.6513 30.7528L32.6383 30.8215C32.3347 32.434 31.9995 34.214 31.0555 35.337C30.7222 35.7335 30.3095 36.0557 29.8438 36.2828C29.0752 36.6577 28.1302 36.6577 26.2402 36.6577C25.3657 36.6577 24.4887 36.6778 23.6143 36.6567C21.5418 36.6062 20.0007 34.8637 20.0007 32.8403" stroke="#616161" stroke-width="1.83077" stroke-linecap="round" stroke-linejoin="round"/>
<path d="M23.9806 17.5522C23.2701 17.5522 22.6221 17.2833 22.1313 16.841M23.9806 17.5522C23.9806 19.462 22.8741 21.276 20.7441 21.276C18.6141 21.276 17.5078 23.0898 17.5078 24.9997M23.9806 17.5522C27.5628 17.5522 27.5628 11.9666 23.9806 11.9666C23.6551 11.9666 23.3428 12.0231 23.0526 12.1267C23.2276 7.96332 17.2255 6.83301 15.866 10.7333M15.866 10.7333C16.8561 11.4015 17.5078 12.5384 17.5078 13.8285M15.866 10.7333C12.7797 8.65024 8.66536 12.3882 10.6227 15.721C7.33775 16.2135 7.68896 21.276 11.0348 21.276C11.973 21.276 12.8025 20.807 13.3045 20.0893" stroke="#0053FE" stroke-width="1.83077" stroke-linecap="round" stroke-linejoin="round"/>
</svg>
