<svg width="40" height="40" viewBox="0 0 40 40" fill="none" xmlns="http://www.w3.org/2000/svg">
<path d="M36.6673 19.9999C36.6673 29.2046 29.2053 36.6666 20.0007 36.6666C10.7959 36.6666 3.33398 29.2046 3.33398 19.9999C3.33398 10.7952 10.7959 3.33325 20.0007 3.33325C29.2053 3.33325 36.6673 10.7952 36.6673 19.9999Z" stroke="#616161" stroke-width="1.83" stroke-linecap="round" stroke-linejoin="round"/>
<path d="M22.8221 12.461L18.2681 14.3362C16.8943 14.9018 16.2075 15.1846 15.6964 15.6957C15.1854 16.2068 14.9026 16.8936 14.3369 18.2674L12.4617 22.8214C11.0552 26.2372 10.352 27.9451 11.2037 28.7969C12.0555 29.6486 13.7634 28.9454 17.1791 27.5389L21.7331 25.6636C23.107 25.0981 23.7938 24.8152 24.3048 24.3041C24.816 23.7931 25.0988 23.1062 25.6643 21.7324L27.5396 17.1784C28.9461 13.7626 29.6493 12.0547 28.7976 11.203C27.9458 10.3512 26.238 11.0545 22.8221 12.461Z" stroke="#0053FF" stroke-width="1.83" stroke-linecap="round" stroke-linejoin="round"/>
<path d="M20 20V20.0167" stroke="#0053FF" stroke-width="3.33333" stroke-linecap="round" stroke-linejoin="round"/>
</svg>
