<svg width="26" height="26" viewBox="0 0 26 26" fill="none" xmlns="http://www.w3.org/2000/svg">
<path d="M25.3333 6.53333C25.3333 6.53333 25.0667 4.8 24.2667 4C23.3333 3.06667 22.2667 3.06667 21.8667 3C18.6667 2.66667 13 2.66667 13 2.66667C13 2.66667 7.33333 2.66667 4.13333 3C3.73333 3.06667 2.66667 3.06667 1.73333 4C0.933333 4.8 0.666667 6.53333 0.666667 6.53333C0.666667 6.53333 0.4 8.66667 0.4 10.8V12.8667C0.4 15 0.666667 17.1333 0.666667 17.1333C0.666667 17.1333 0.933333 18.8667 1.73333 19.6667C2.66667 20.6 3.86667 20.5333 4.33333 20.6C6.4 20.8667 13 20.9333 13 20.9333C13 20.9333 18.6667 20.8667 21.8667 20.5333C22.2667 20.4667 23.3333 20.4667 24.2667 19.5333C25.0667 18.7333 25.3333 17 25.3333 17C25.3333 17 25.6 14.8667 25.6 12.7333V10.6667C25.6 8.53333 25.3333 6.53333 25.3333 6.53333ZM10.5333 14.4667V8.86667L17.2 11.6667L10.5333 14.4667Z" fill="white"/>
</svg>

